<svg xmlns="http://www.w3.org/2000/svg" viewBox="0 0 64 64" role="img" aria-label="Damaros">
  <rect width="64" height="64" fill="#000"/>
  <g fill="none" stroke="#fff" stroke-width="33" stroke-linejoin="round" stroke-linecap="round" transform="translate(15.5,14.0) scale(0.0692)">
    <path d="M 104.82 74.50 L 366.46 74.50 A 40.50 40.50 0 0 1 402.59 133.29 L 368.99 199.68 A 63.50 63.50 0 0 1 312.33 234.50 L 158.12 234.50 A 63.50 63.50 0 0 1 101.18 199.11 L 68.50 132.93 A 40.50 40.50 0 0 1 104.82 74.50 Z"/>
    <path d="M 158.62 284.50 L 312.06 284.50 A 63.50 63.50 0 0 1 368.75 319.39 L 403.25 387.75 A 40.50 40.50 0 0 1 367.09 446.50 L 104.32 446.50 A 40.50 40.50 0 0 1 68.01 388.07 L 101.68 319.88 A 63.50 63.50 0 0 1 158.62 284.50 Z"/>
  </g>
</svg>
