<svg class="topo" viewBox="0 0 1600 1000" preserveAspectRatio="xMidYMid slice" aria-hidden="true" xmlns="http://www.w3.org/2000/svg" data-summit="799.2 446.0"><path class="topo-ink" d="M0.0 745.3 C4.9 748.1 20.0 755.6 29.1 762.1 38.2 768.6 47.9 775.5 54.5 784.2 61.2 792.9 66.6 803.5 69.1 814.1 71.5 824.7 68.1 836.7 69.0 847.8 70.0 858.9 71.2 870.2 74.7 880.7 78.1 891.2 83.6 901.7 89.9 910.8 96.3 919.8 104.5 927.9 113.0 935.1 121.5 942.4 131.8 947.5 140.9 954.1 150.0 960.7 159.5 967.0 167.7 974.7 175.8 982.3 186.0 995.8 189.6 1000.0 M721.3 1000.0 C726.4 996.8 740.8 984.5 751.9 981.1 763.0 977.7 777.1 976.3 787.9 979.5 798.8 982.6 812.2 996.6 817.0 1000.0 M167.9 0.0 C172.9 2.3 188.0 9.3 198.1 13.9 208.2 18.5 218.6 22.7 228.5 27.7 238.4 32.8 247.8 38.8 257.5 44.2 267.2 49.5 276.9 55.0 286.9 59.9 296.8 64.9 306.7 70.4 317.1 73.9 327.6 77.5 338.6 80.9 349.5 81.2 360.3 81.6 371.5 78.5 382.3 76.1 393.1 73.7 403.8 70.3 414.4 67.0 425.0 63.8 436.0 61.2 446.0 56.6 456.1 52.0 465.1 45.3 474.6 39.5 484.0 33.6 492.5 25.7 502.6 21.5 512.6 17.2 523.9 15.3 534.9 14.1 545.8 12.9 557.1 14.5 568.2 14.1 579.3 13.8 590.4 12.7 601.5 12.1 612.6 11.4 623.7 10.6 634.8 10.2 645.9 9.8 657.0 10.4 668.1 9.8 679.2 9.2 690.3 8.2 701.3 6.5 712.3 4.9 728.5 1.1 734.0 0.0 M1600.0 409.1 C1594.9 407.3 1579.0 403.1 1569.1 398.6 1559.2 394.2 1550.5 387.1 1540.6 382.4 1530.8 377.7 1520.6 373.5 1510.2 370.5 1499.7 367.6 1487.7 368.6 1478.0 364.6 1468.2 360.7 1455.5 354.9 1451.8 346.9 1448.1 338.9 1450.9 324.8 1455.9 316.5 1461.0 308.2 1473.1 303.1 1482.0 296.8 1490.9 290.6 1500.1 284.5 1509.4 278.8 1518.7 273.1 1528.1 267.4 1538.0 262.9 1547.9 258.4 1558.5 255.4 1568.9 251.8 1579.2 248.2 1594.8 243.3 1600.0 241.6 M0.0 560.4 C5.1 562.6 20.4 569.9 30.8 574.0 41.3 578.2 51.8 582.5 62.6 585.3 73.4 588.1 84.7 589.8 95.8 590.8 107.0 591.8 118.4 590.8 129.6 591.4 140.8 592.0 152.2 592.1 163.2 594.2 174.1 596.3 185.3 599.4 195.3 604.1 205.4 608.8 215.3 615.1 223.4 622.6 231.5 630.1 239.6 639.2 244.1 649.0 248.7 658.9 250.5 670.7 250.7 681.7 250.9 692.7 247.9 704.1 245.2 714.9 242.5 725.8 238.5 736.4 234.7 747.0 230.9 757.6 226.3 767.9 222.5 778.5 218.6 789.0 215.1 799.7 211.7 810.4 208.3 821.2 203.9 831.8 202.2 842.8 200.4 853.8 199.8 865.3 201.1 876.3 202.4 887.3 206.5 898.1 210.1 908.8 213.6 919.5 217.7 930.0 222.2 940.3 226.8 950.5 232.3 960.4 237.6 970.3 242.8 980.3 250.9 995.1 253.5 1000.0 M579.2 1000.0 C582.1 995.2 590.7 981.0 596.5 971.5 602.3 962.0 609.0 952.9 613.8 942.9 618.6 932.9 621.9 922.2 625.4 911.6 628.9 901.0 631.7 890.2 635.1 879.6 638.4 869.0 639.3 855.8 645.4 847.8 651.4 839.9 661.6 833.4 671.4 831.9 681.2 830.3 693.1 836.8 704.1 838.6 715.1 840.4 726.2 841.3 737.3 842.5 748.4 843.8 759.5 844.8 770.5 846.0 781.6 847.3 792.7 848.8 803.7 850.0 814.8 851.1 825.9 852.1 837.0 852.8 848.2 853.4 859.3 853.5 870.5 853.7 881.6 854.0 892.7 854.3 903.9 854.3 915.0 854.3 926.2 853.2 937.3 853.5 948.4 853.8 959.6 854.6 970.6 856.3 981.6 857.9 992.3 861.4 1003.2 863.3 1014.2 865.2 1025.3 867.3 1036.3 867.5 1047.4 867.8 1058.5 865.2 1069.6 864.8 1080.7 864.5 1092.5 862.9 1103.0 865.5 1113.4 868.0 1125.7 872.4 1132.4 879.9 1139.0 887.5 1143.8 900.9 1143.0 910.8 1142.2 920.7 1133.0 929.9 1127.8 939.5 1122.6 949.0 1113.1 957.8 1111.9 967.9 1110.6 978.0 1118.9 994.6 1120.3 1000.0 M0.0 56.8 C5.6 56.4 22.5 54.4 33.8 54.6 45.0 54.8 56.2 57.1 67.5 58.0 78.8 59.0 90.1 59.5 101.3 60.1 112.6 60.7 124.1 60.2 135.2 61.8 146.3 63.4 157.5 65.9 168.1 69.7 178.6 73.5 188.6 79.2 198.5 84.5 208.4 89.9 217.9 96.1 227.7 101.9 237.4 107.6 247.2 113.2 256.8 119.2 266.4 125.2 275.7 131.6 285.1 137.9 294.5 144.2 303.3 151.4 313.0 157.1 322.7 162.9 332.6 168.5 343.1 172.6 353.6 176.6 364.8 179.1 375.8 181.3 386.9 183.5 398.2 184.9 409.5 185.6 420.7 186.2 432.2 186.3 443.3 185.0 454.5 183.7 465.7 181.3 476.4 177.8 487.0 174.2 497.3 169.1 507.1 163.6 516.9 158.0 525.8 150.9 535.0 144.4 544.2 137.8 553.0 130.6 562.4 124.3 571.7 118.1 581.3 111.9 591.3 106.6 601.2 101.3 611.5 96.4 622.0 92.5 632.6 88.6 643.6 85.6 654.6 83.1 665.6 80.5 676.8 78.7 687.9 76.9 699.1 75.2 710.3 73.8 721.6 72.7 732.8 71.7 744.1 71.0 755.4 70.6 766.7 70.2 778.0 70.3 789.3 70.1 800.6 70.0 811.9 69.8 823.2 69.6 834.5 69.4 845.8 69.1 857.1 68.9 868.4 68.6 879.7 68.9 891.0 68.3 902.3 67.8 913.5 66.4 924.8 65.7 936.1 64.9 947.4 63.7 958.6 63.8 969.9 63.9 981.2 64.9 992.4 66.2 1003.7 67.5 1014.7 70.3 1026.0 71.3 1037.2 72.3 1048.6 73.2 1059.8 72.4 1071.0 71.6 1082.7 70.4 1093.1 66.5 1103.4 62.7 1113.2 56.1 1122.0 49.2 1130.7 42.3 1138.0 33.3 1145.7 25.1 1153.5 16.9 1164.7 4.2 1168.5 0.0 M1536.9 0.0 C1540.9 3.8 1553.4 15.0 1561.1 23.0 1568.8 31.0 1576.9 38.9 1583.3 47.9 1589.8 56.9 1597.2 72.0 1600.0 76.8 M1600.0 464.4 C1594.4 463.7 1577.5 461.6 1566.3 459.7 1555.1 457.8 1544.1 454.6 1532.9 453.0 1521.7 451.3 1510.4 449.4 1499.2 449.9 1488.0 450.4 1476.8 453.7 1465.7 456.1 1454.6 458.5 1443.7 462.7 1432.6 464.0 1421.4 465.3 1409.6 466.1 1398.7 464.0 1387.8 461.9 1376.8 457.2 1367.2 451.6 1357.5 445.9 1347.9 438.7 1340.9 430.2 1333.9 421.6 1329.5 410.6 1325.2 400.2 1320.9 389.8 1319.5 378.1 1315.1 367.7 1310.7 357.3 1301.5 348.1 1298.7 337.9 1296.0 327.7 1293.6 314.4 1298.6 306.6 1303.6 298.9 1318.6 296.5 1328.7 291.5 1338.8 286.5 1349.1 281.5 1359.3 276.5 1369.4 271.5 1379.3 265.9 1389.8 261.5 1400.2 257.1 1411.3 254.1 1421.8 250.0 1432.4 245.9 1443.1 241.9 1453.3 237.0 1463.5 232.1 1473.1 226.0 1483.2 220.6 1493.2 215.3 1503.3 210.1 1513.4 205.0 1523.5 199.8 1534.8 196.3 1543.9 189.9 1553.0 183.4 1561.4 175.2 1568.2 166.4 1575.0 157.5 1579.6 146.7 1584.9 136.7 1590.2 126.7 1597.5 111.3 1600.0 106.2 M0.0 490.5 C5.2 492.5 20.9 498.4 31.3 502.4 41.7 506.5 51.9 511.2 62.4 515.0 73.0 518.8 83.6 522.4 94.4 525.0 105.3 527.6 116.4 529.3 127.5 530.7 138.6 532.1 149.8 532.6 161.0 533.4 172.1 534.1 183.3 534.6 194.5 535.3 205.6 536.0 216.8 536.5 227.9 537.6 239.1 538.8 250.4 539.3 261.2 542.1 271.9 544.8 282.4 549.3 292.3 554.2 302.2 559.2 311.3 566.0 320.8 571.9 330.3 577.9 340.3 583.2 349.1 590.0 358.0 596.7 366.5 604.2 373.9 612.5 381.3 620.8 389.1 629.9 393.3 639.8 397.5 649.6 401.6 662.1 399.0 671.7 396.4 681.2 385.0 688.9 377.6 697.2 370.1 705.5 361.4 712.8 354.3 721.3 347.1 729.9 340.6 739.1 334.6 748.4 328.5 757.8 322.9 767.6 317.8 777.5 312.7 787.4 307.8 797.6 303.8 808.0 299.8 818.4 296.4 829.1 293.8 840.0 291.1 850.8 288.9 861.9 287.7 873.0 286.5 884.0 285.8 895.4 286.3 906.5 286.9 917.6 288.2 928.9 291.1 939.6 294.1 950.3 299.2 960.4 304.0 970.5 308.8 980.6 317.3 995.1 320.0 1000.0 M473.7 1000.0 C477.8 996.2 490.1 984.8 498.5 977.2 506.8 969.7 516.1 963.1 523.7 954.9 531.3 946.8 538.8 938.0 544.1 928.3 549.4 918.6 553.0 907.6 555.5 896.7 558.0 885.9 559.0 874.5 559.1 863.3 559.2 852.2 558.4 840.7 556.3 829.8 554.1 818.9 550.4 808.1 546.1 797.8 541.9 787.5 536.5 777.4 530.6 767.9 524.8 758.4 517.1 749.9 511.0 740.6 504.8 731.3 492.5 719.9 493.8 712.3 495.1 704.7 508.8 697.6 518.6 694.9 528.3 692.3 541.1 694.7 552.1 696.3 563.1 697.9 574.1 701.2 584.7 704.7 595.3 708.1 605.6 712.9 615.9 717.2 626.3 721.5 636.5 726.2 647.0 730.2 657.4 734.3 668.3 737.4 678.7 741.7 689.0 745.9 699.1 750.8 709.3 755.6 719.4 760.4 729.2 766.2 739.5 770.4 749.9 774.6 760.6 778.2 771.5 780.9 782.3 783.7 793.4 785.6 804.5 787.2 815.6 788.8 826.9 789.8 838.1 790.4 849.2 790.9 860.5 790.7 871.7 790.3 882.9 789.9 894.1 789.0 905.3 787.8 916.4 786.6 927.5 784.6 938.6 783.1 949.8 781.7 960.9 780.2 972.0 778.9 983.2 777.6 994.4 776.7 1005.5 775.4 1016.7 774.1 1027.8 772.1 1038.9 770.9 1050.1 769.7 1061.3 767.8 1072.4 768.3 1083.5 768.7 1094.8 770.7 1105.5 773.7 1116.3 776.7 1126.8 781.2 1136.8 786.1 1146.8 791.1 1157.3 796.2 1165.7 803.3 1174.1 810.4 1181.2 819.6 1187.2 828.9 1193.2 838.3 1196.6 849.3 1201.5 859.4 1206.4 869.5 1210.9 879.8 1216.7 889.4 1222.4 899.0 1228.9 908.3 1235.9 917.0 1242.9 925.7 1250.4 934.2 1258.7 941.7 1267.0 949.2 1276.0 956.3 1285.5 962.0 1295.1 967.8 1305.7 971.9 1316.1 976.1 1326.4 980.3 1337.3 983.4 1347.8 987.4 1358.3 991.4 1373.8 997.9 1379.0 1000.0 M1382.8 63.9 C1392.8 63.3 1403.3 64.9 1413.2 67.2 1423.0 69.5 1432.8 73.4 1441.9 77.8 1451.1 82.2 1461.7 86.4 1468.1 93.5 1474.6 100.6 1480.0 111.1 1480.7 120.4 1481.5 129.8 1477.4 141.1 1472.6 149.6 1467.7 158.1 1459.8 166.2 1451.5 171.5 1443.2 176.8 1432.7 180.6 1422.9 181.6 1413.1 182.6 1402.5 179.8 1392.7 177.2 1382.9 174.7 1374.0 168.5 1364.1 166.1 1354.3 163.8 1343.8 164.6 1333.7 163.2 1323.7 161.8 1311.0 163.3 1304.0 157.9 1297.1 152.6 1292.3 140.3 1291.8 131.1 1291.4 121.8 1296.0 110.5 1301.5 102.5 1307.0 94.5 1316.4 88.4 1324.9 83.1 1333.5 77.8 1343.3 73.9 1353.0 70.7 1362.6 67.5 1372.8 64.5 1382.8 63.9 Z M0.0 109.6 C5.6 108.9 22.4 105.9 33.6 105.6 44.9 105.3 56.2 107.1 67.5 107.8 78.8 108.5 90.1 109.1 101.3 110.0 112.6 110.9 124.0 111.1 135.1 113.2 146.1 115.3 157.1 118.6 167.5 122.9 177.8 127.2 187.7 133.1 197.3 139.1 206.8 145.0 215.9 151.8 224.9 158.7 233.8 165.6 242.5 172.9 251.0 180.3 259.5 187.7 267.8 195.5 276.0 203.3 284.2 211.0 292.3 218.9 300.4 226.8 308.5 234.7 316.3 243.0 324.5 250.6 332.8 258.3 340.6 267.5 350.1 272.9 359.6 278.3 371.1 282.8 381.8 283.1 392.5 283.3 403.8 278.2 414.3 274.1 424.8 270.1 434.5 263.9 444.6 258.8 454.6 253.7 464.6 248.4 474.8 243.4 484.9 238.4 495.3 234.0 505.5 229.0 515.6 224.0 525.8 219.0 535.6 213.5 545.5 208.0 555.0 201.9 564.7 195.9 574.3 190.0 583.6 183.6 593.3 177.7 602.9 171.9 612.6 166.0 622.6 160.7 632.5 155.3 642.7 150.2 653.1 145.8 663.5 141.5 674.2 137.6 685.1 134.7 695.9 131.7 707.1 129.7 718.3 128.1 729.5 126.5 740.8 125.9 752.1 125.3 763.4 124.8 774.7 124.8 786.0 125.0 797.3 125.1 808.6 125.4 819.9 126.4 831.2 127.3 842.4 129.0 853.6 130.4 864.8 131.8 876.0 133.8 887.2 134.7 898.5 135.6 909.8 135.2 921.1 136.0 932.4 136.7 943.9 136.6 954.8 139.0 965.7 141.5 976.6 145.5 986.6 150.5 996.7 155.5 1006.1 162.1 1015.1 168.9 1024.0 175.8 1032.9 183.2 1040.3 191.6 1047.7 200.0 1054.5 209.4 1059.5 219.3 1064.5 229.3 1067.0 240.6 1070.3 251.4 1073.5 262.3 1075.2 273.6 1079.1 284.2 1083.1 294.7 1087.6 305.4 1093.8 314.6 1100.1 323.9 1108.1 332.3 1116.6 339.6 1125.0 346.9 1134.9 352.9 1144.6 358.6 1154.4 364.2 1164.9 368.6 1175.0 373.6 1185.2 378.6 1196.3 382.1 1205.5 388.4 1214.6 394.8 1223.0 402.8 1229.9 411.6 1236.9 420.3 1241.4 431.0 1247.0 440.9 1252.6 450.7 1257.4 461.0 1263.4 470.6 1269.3 480.1 1275.4 489.9 1282.9 498.3 1290.3 506.7 1298.8 514.5 1308.0 520.9 1317.1 527.3 1327.4 532.8 1337.9 536.8 1348.3 540.7 1359.6 543.6 1370.7 544.7 1381.8 545.8 1393.4 544.8 1404.5 543.4 1415.7 541.9 1426.8 539.1 1437.7 536.1 1448.5 533.1 1458.9 528.4 1469.8 525.2 1480.6 522.0 1491.5 517.9 1502.6 517.0 1513.7 516.0 1525.2 517.5 1536.2 519.5 1547.3 521.4 1558.2 524.9 1568.9 528.7 1579.5 532.5 1594.8 539.9 1600.0 542.1 M0.0 435.0 C5.2 437.2 20.8 443.9 31.2 448.4 41.5 452.9 51.7 458.0 62.2 462.2 72.7 466.3 83.4 470.4 94.3 473.3 105.2 476.2 116.5 478.2 127.7 479.3 138.9 480.5 150.3 480.6 161.6 480.3 172.9 479.9 184.2 478.8 195.5 477.3 206.7 475.8 218.0 474.3 228.9 471.5 239.8 468.7 250.4 464.3 261.0 460.5 271.6 456.6 281.8 450.8 292.7 448.4 303.6 446.0 315.9 443.8 326.3 446.1 336.8 448.3 347.1 455.1 355.6 462.1 364.0 469.2 369.7 479.9 377.1 488.4 384.5 497.0 392.0 505.4 399.9 513.6 407.8 521.7 416.2 529.3 424.4 537.1 432.6 544.9 440.5 553.0 449.1 560.4 457.6 567.9 466.3 575.2 475.6 581.6 484.9 588.1 494.6 594.0 504.6 599.2 514.6 604.5 525.3 608.6 535.7 613.0 546.1 617.5 556.7 621.5 567.0 626.1 577.4 630.6 587.7 635.3 597.9 640.3 608.0 645.3 618.0 650.7 627.9 656.2 637.9 661.6 647.5 667.6 657.5 672.9 667.5 678.3 677.6 683.3 687.8 688.3 697.9 693.3 708.3 697.8 718.5 702.8 728.7 707.8 738.6 713.2 748.8 718.1 759.1 722.9 769.2 728.3 779.8 731.9 790.5 735.5 801.7 738.1 812.9 739.6 824.0 741.0 835.5 741.0 846.8 740.7 858.1 740.5 869.4 739.1 880.6 738.0 891.9 736.9 903.2 735.8 914.4 734.3 925.6 732.8 936.9 731.4 948.0 729.1 959.0 726.7 970.0 723.6 980.7 720.1 991.5 716.6 1001.9 712.0 1012.5 708.1 1023.1 704.1 1033.5 699.4 1044.4 696.5 1055.3 693.7 1066.6 691.1 1077.8 690.8 1089.0 690.5 1100.7 691.9 1111.4 694.7 1122.2 697.6 1133.0 702.3 1142.5 708.2 1152.0 714.1 1160.5 722.1 1168.4 730.1 1176.3 738.1 1183.3 747.2 1190.0 756.2 1196.8 765.3 1203.2 774.7 1209.1 784.3 1214.9 794.0 1219.9 804.2 1225.3 814.2 1230.6 824.2 1235.2 834.6 1241.1 844.2 1247.0 853.8 1253.5 863.2 1260.8 871.9 1268.0 880.6 1275.8 889.1 1284.4 896.2 1293.1 903.4 1302.7 909.9 1312.8 914.8 1322.8 919.7 1334.0 922.8 1344.9 925.5 1355.9 928.2 1367.2 929.3 1378.5 930.7 1389.7 932.2 1401.0 933.9 1412.3 934.3 1423.5 934.6 1435.1 934.7 1446.1 932.8 1457.1 930.9 1468.2 927.3 1478.4 922.6 1488.6 917.9 1497.8 911.0 1507.2 904.7 1516.6 898.5 1524.9 890.2 1534.9 885.1 1544.8 880.0 1556.0 877.2 1566.9 874.1 1577.7 871.0 1594.5 867.8 1600.0 866.5 M406.6 823.6 C413.7 820.1 422.1 817.8 429.9 817.4 437.7 817.0 446.3 818.3 453.6 821.0 460.9 823.7 468.2 828.5 473.9 833.9 479.5 839.3 484.6 846.3 487.8 853.5 490.9 860.7 492.9 869.2 492.6 877.0 492.3 884.8 490.0 893.2 486.2 900.0 482.4 906.8 476.2 912.8 470.1 917.8 463.9 922.9 456.7 927.1 449.5 930.4 442.2 933.7 434.4 936.6 426.6 937.9 418.7 939.1 410.1 939.5 402.5 937.7 395.0 935.9 386.7 932.2 381.2 927.0 375.7 921.8 371.6 913.7 369.6 906.2 367.5 898.7 367.9 890.1 368.8 882.2 369.8 874.3 372.1 866.2 375.2 858.9 378.4 851.6 382.5 844.3 387.7 838.4 393.0 832.5 399.6 827.1 406.6 823.6 Z M0.0 163.0 C5.4 161.5 21.5 155.4 32.6 154.0 43.6 152.6 55.1 153.9 66.4 154.5 77.7 155.0 89.0 155.9 100.1 157.4 111.3 158.9 122.7 160.3 133.4 163.5 144.2 166.6 154.9 170.8 164.7 176.2 174.6 181.6 183.7 188.5 192.4 195.7 201.0 202.9 208.9 211.1 216.4 219.5 223.9 227.9 230.7 237.1 237.3 246.2 243.9 255.3 251.0 264.4 256.1 274.3 261.2 284.3 266.8 295.1 267.9 305.9 269.0 316.6 267.2 329.0 262.7 338.8 258.3 348.5 249.0 356.6 241.0 364.4 233.0 372.3 223.6 378.8 214.8 385.9 206.1 393.1 198.0 401.4 188.5 407.2 178.9 412.9 168.3 418.2 157.6 420.4 146.8 422.6 134.9 421.8 123.9 420.4 112.8 419.0 101.9 415.0 91.1 412.0 80.2 408.9 69.3 405.8 58.7 402.0 48.1 398.2 37.2 394.6 27.4 389.1 17.7 383.7 4.6 372.6 0.0 369.3 M718.5 183.8 C729.7 181.8 741.1 180.7 752.4 179.9 763.8 179.2 775.2 179.1 786.6 179.4 798.0 179.7 809.4 180.4 820.7 181.7 832.0 183.1 843.2 185.3 854.4 187.4 865.6 189.5 876.8 191.4 887.9 194.2 898.9 196.9 910.2 199.4 920.6 203.9 930.9 208.4 940.9 214.5 949.9 221.2 959.0 228.0 967.3 236.0 974.9 244.5 982.5 252.9 989.2 262.2 995.3 271.8 1001.3 281.4 1005.9 292.0 1011.2 302.0 1016.6 312.1 1021.5 322.4 1027.3 332.2 1033.1 342.0 1039.4 351.6 1046.2 360.6 1053.1 369.7 1060.9 378.1 1068.6 386.5 1076.3 394.8 1084.9 402.4 1092.5 410.8 1100.1 419.3 1107.9 427.8 1114.4 437.1 1120.8 446.4 1126.3 456.5 1131.3 466.7 1136.3 476.9 1140.1 487.7 1144.6 498.2 1149.0 508.7 1151.0 521.9 1158.0 529.6 1165.0 537.2 1176.4 539.7 1186.4 544.1 1196.4 548.5 1207.9 551.2 1218.1 556.0 1228.3 560.8 1237.2 568.9 1247.6 573.0 1258.1 577.1 1269.6 578.7 1280.8 580.5 1292.0 582.3 1303.5 582.7 1314.9 583.8 1326.2 584.9 1337.5 586.2 1348.8 587.3 1360.2 588.5 1371.6 589.2 1382.8 590.8 1394.1 592.5 1405.6 593.9 1416.4 597.2 1427.2 600.5 1438.1 604.9 1447.6 610.9 1457.1 616.9 1465.6 624.9 1473.3 633.2 1481.0 641.4 1487.4 651.1 1493.8 660.4 1500.3 669.8 1506.6 679.4 1512.1 689.4 1517.5 699.3 1523.8 709.5 1526.4 720.3 1529.0 731.1 1529.6 743.2 1527.6 754.0 1525.5 764.9 1519.7 775.5 1514.0 785.3 1508.3 795.0 1501.2 804.2 1493.6 812.6 1485.9 820.9 1477.1 828.3 1468.2 835.4 1459.4 842.6 1450.0 849.2 1440.4 855.3 1430.8 861.3 1421.0 867.6 1410.5 871.8 1400.1 876.0 1388.7 879.5 1377.6 880.4 1366.5 881.3 1354.6 880.1 1343.7 877.3 1332.9 874.5 1322.1 869.6 1312.5 863.9 1302.8 858.1 1293.8 850.6 1285.7 842.7 1277.6 834.8 1270.2 825.9 1263.9 816.5 1257.5 807.1 1252.5 796.7 1247.5 786.5 1242.6 776.3 1238.4 765.6 1234.0 755.1 1229.6 744.6 1225.4 734.0 1221.3 723.4 1217.3 712.7 1213.5 702.0 1209.8 691.2 1206.2 680.4 1202.6 669.6 1199.6 658.6 1196.7 647.6 1195.4 636.2 1192.3 625.2 1189.1 614.3 1186.0 603.1 1180.9 593.1 1175.8 583.1 1170.0 568.1 1161.8 565.3 1153.5 562.5 1140.9 570.9 1131.4 576.3 1121.9 581.7 1114.3 591.6 1104.8 597.7 1095.3 603.8 1084.7 608.3 1074.4 613.1 1064.1 617.9 1053.2 621.6 1042.9 626.4 1032.6 631.1 1022.5 636.5 1012.3 641.6 1002.2 646.8 992.2 652.3 981.9 657.3 971.7 662.2 961.4 667.2 950.8 671.4 940.2 675.5 929.4 679.2 918.4 682.2 907.4 685.2 896.2 687.4 885.0 689.2 873.8 691.1 862.4 692.7 851.1 693.3 839.7 693.9 828.2 694.1 816.9 692.8 805.7 691.4 794.5 688.6 783.7 685.3 772.8 681.9 762.4 677.2 751.9 672.6 741.5 668.1 731.3 663.0 721.1 658.0 710.9 652.9 700.8 647.6 690.7 642.2 680.7 636.9 670.7 631.3 660.8 625.7 650.9 620.2 641.0 614.5 631.1 608.8 621.2 603.2 611.3 597.6 601.4 591.9 591.5 586.2 581.6 580.7 571.8 574.8 562.1 568.9 552.2 563.1 543.0 556.5 533.8 549.8 524.5 542.9 516.5 534.9 508.5 527.0 501.3 517.9 494.9 508.6 488.4 499.2 482.9 489.1 478.0 478.9 473.0 468.7 468.5 458.1 465.3 447.2 462.1 436.3 459.8 425.0 458.8 413.7 457.7 402.4 457.7 390.8 458.8 379.6 459.9 368.3 461.5 356.6 465.5 346.1 469.5 335.7 475.4 325.4 482.5 316.8 489.7 308.2 499.4 301.5 508.4 294.7 517.5 287.9 527.5 282.2 537.0 275.9 546.6 269.7 556.1 263.5 565.7 257.3 575.2 251.0 584.6 244.6 594.2 238.5 603.8 232.4 613.4 226.1 623.3 220.6 633.2 215.0 643.3 209.7 653.7 205.0 664.1 200.3 674.6 195.9 685.4 192.3 696.2 188.8 707.3 185.9 718.5 183.8 Z M59.6 215.0 C67.7 211.2 78.3 210.8 87.5 211.3 96.7 211.8 106.3 214.4 114.9 218.0 123.5 221.6 131.6 227.0 138.9 232.9 146.2 238.7 153.1 245.6 158.8 253.0 164.5 260.4 170.4 268.6 173.3 277.3 176.3 285.9 178.4 296.4 176.6 305.0 174.7 313.7 168.3 322.3 162.2 329.1 156.0 336.0 148.0 342.2 139.7 346.1 131.4 350.1 121.6 352.2 112.4 352.8 103.1 353.4 93.2 352.4 84.2 349.8 75.3 347.3 66.1 343.3 58.9 337.6 51.8 331.9 45.9 323.6 41.4 315.5 36.9 307.4 33.5 298.1 31.8 289.0 30.0 279.8 29.6 269.9 30.8 260.7 32.0 251.6 34.4 241.4 39.2 233.8 44.0 226.2 51.6 218.7 59.6 215.0 Z M734.1 239.8 C745.2 238.0 756.7 237.7 768.0 237.4 779.3 237.2 790.6 237.7 801.9 238.4 813.2 239.0 824.6 239.7 835.8 241.5 846.9 243.2 858.3 245.1 868.9 248.7 879.6 252.3 890.1 257.1 899.6 263.1 909.1 269.0 917.9 276.5 926.1 284.3 934.2 292.1 941.5 300.9 948.7 309.6 955.8 318.4 962.3 327.7 969.0 336.8 975.7 346.0 982.3 355.2 988.8 364.5 995.3 373.8 1001.8 383.1 1007.9 392.6 1014.0 402.1 1020.0 411.7 1025.6 421.6 1031.1 431.5 1036.7 441.4 1041.0 451.9 1045.3 462.3 1049.5 473.1 1051.5 484.1 1053.6 495.1 1055.0 507.0 1053.3 517.9 1051.7 528.8 1047.5 540.2 1041.6 549.4 1035.7 558.7 1026.5 566.4 1017.8 573.5 1009.1 580.5 999.0 586.0 989.2 591.8 979.5 597.6 969.6 603.1 959.5 608.2 949.4 613.3 939.2 618.3 928.7 622.6 918.2 626.9 907.6 630.9 896.7 634.1 885.9 637.2 874.7 639.7 863.5 641.2 852.4 642.7 840.9 643.5 829.7 643.1 818.4 642.8 807.0 641.2 796.0 638.9 784.9 636.7 774.0 633.3 763.3 629.6 752.7 625.8 742.3 621.2 732.0 616.5 721.7 611.7 711.7 606.4 701.8 601.0 691.8 595.6 682.0 590.0 672.3 584.1 662.6 578.2 653.0 572.1 643.6 565.8 634.2 559.5 625.0 553.0 615.9 546.1 606.9 539.3 597.9 532.4 589.5 524.8 581.1 517.2 572.6 509.4 565.6 500.7 558.6 491.9 552.0 482.3 547.4 472.1 542.7 462.0 539.5 450.7 537.7 439.7 535.9 428.6 535.4 416.9 536.6 405.8 537.7 394.7 540.3 383.2 544.8 373.0 549.3 362.8 556.3 353.4 563.3 344.6 570.4 335.9 578.7 328.0 587.0 320.3 595.3 312.5 604.0 305.2 612.9 298.3 621.8 291.4 631.1 284.8 640.6 278.7 650.2 272.6 660.0 266.8 670.1 261.7 680.2 256.6 690.5 251.8 701.2 248.1 711.9 244.5 723.0 241.6 734.1 239.8 Z M1325.6 631.7 C1336.2 629.1 1347.9 628.2 1358.8 629.2 1369.7 630.3 1381.0 633.3 1390.8 638.1 1400.6 642.9 1409.4 650.5 1417.4 658.2 1425.4 665.8 1432.8 674.6 1438.7 683.9 1444.6 693.2 1450.5 703.5 1452.7 714.0 1455.0 724.6 1454.6 736.6 1452.2 747.1 1449.8 757.7 1444.0 768.0 1438.1 777.3 1432.2 786.6 1424.9 795.6 1416.6 802.8 1408.4 810.1 1398.8 817.0 1388.7 820.8 1378.5 824.6 1366.7 826.3 1355.9 825.6 1345.1 824.9 1333.6 821.4 1323.9 816.6 1314.1 811.8 1304.5 804.8 1297.3 796.7 1290.0 788.6 1284.7 778.2 1280.5 768.0 1276.2 757.9 1274.0 746.6 1271.9 735.7 1269.8 724.8 1267.6 713.5 1267.9 702.6 1268.2 691.6 1269.1 679.5 1273.6 669.9 1278.1 660.3 1286.3 651.1 1295.0 644.7 1303.6 638.4 1314.9 634.2 1325.6 631.7 Z M756.4 303.6 C767.5 301.6 778.9 300.5 790.1 300.6 801.4 300.7 812.8 301.9 823.8 304.3 834.7 306.7 845.6 310.4 855.8 315.1 866.0 319.7 875.9 325.6 885.0 332.2 894.0 338.8 902.4 346.7 910.3 354.7 918.2 362.7 925.6 371.3 932.5 380.3 939.3 389.2 946.0 398.5 951.4 408.4 956.7 418.2 961.3 428.8 964.5 439.5 967.7 450.2 970.4 461.7 970.6 472.8 970.8 483.8 969.6 495.8 965.7 506.0 961.9 516.3 954.6 525.8 947.2 534.2 939.8 542.5 930.7 549.6 921.4 556.0 912.2 562.3 902.0 567.7 891.7 572.2 881.4 576.6 870.5 580.1 859.5 582.5 848.6 585.0 837.2 586.6 826.0 586.8 814.8 587.1 803.3 586.1 792.3 584.0 781.2 582.0 770.3 578.5 759.8 574.5 749.2 570.6 739.0 565.7 729.0 560.3 719.1 555.0 709.4 549.0 700.1 542.7 690.8 536.3 681.8 529.5 673.3 522.1 664.8 514.7 656.3 506.9 649.2 498.3 642.1 489.6 635.1 480.1 630.9 469.9 626.7 459.7 624.1 448.0 623.8 437.0 623.6 425.9 625.9 414.3 629.3 403.7 632.7 393.1 638.1 382.7 644.3 373.4 650.4 364.1 658.2 355.5 666.4 347.9 674.6 340.2 683.8 333.4 693.4 327.5 703.0 321.7 713.4 316.8 723.9 312.8 734.4 308.8 745.4 305.6 756.4 303.6 Z M1348.7 710.0 C1350.2 708.6 1352.1 707.2 1354.0 706.5 1355.9 705.8 1358.3 705.6 1360.4 705.9 1362.4 706.2 1364.5 707.3 1366.3 708.4 1368.0 709.6 1369.6 711.2 1370.8 712.9 1372.0 714.6 1372.9 716.7 1373.6 718.7 1374.2 720.8 1374.6 723.0 1374.5 725.1 1374.3 727.2 1373.7 729.4 1372.8 731.3 1372.0 733.3 1371.0 735.4 1369.5 736.8 1368.0 738.2 1365.7 739.1 1363.7 739.7 1361.7 740.3 1359.4 740.6 1357.3 740.3 1355.3 740.1 1353.0 739.4 1351.2 738.3 1349.5 737.2 1348.1 735.4 1346.9 733.6 1345.6 731.9 1344.3 730.0 1343.7 728.0 1343.2 726.0 1343.2 723.7 1343.5 721.6 1343.7 719.4 1344.2 717.3 1345.1 715.4 1345.9 713.5 1347.2 711.5 1348.7 710.0 Z"/><path class="topo-blue" d="M0.0 819.4 C1.6 824.6 6.7 839.9 9.6 850.5 12.4 861.1 13.4 872.5 17.1 883.0 20.8 893.5 26.7 903.5 31.6 913.6 36.5 923.8 40.1 935.0 46.7 943.9 53.3 952.7 61.8 961.4 71.3 966.5 80.9 971.7 93.0 972.4 103.9 975.0 114.9 977.6 126.8 977.9 137.0 982.1 147.2 986.2 160.5 997.0 165.2 1000.0 M0.0 698.3 C5.3 699.7 21.4 704.0 32.1 706.9 42.8 709.8 53.3 714.3 64.2 715.4 75.0 716.5 88.1 709.9 97.2 713.5 106.4 717.0 113.1 727.9 119.3 736.7 125.4 745.5 131.3 756.0 134.1 766.4 137.0 776.8 138.1 788.5 136.3 799.0 134.6 809.6 126.8 819.2 123.6 829.7 120.4 840.2 116.3 851.5 117.2 862.0 118.1 872.6 123.9 883.1 128.9 892.9 133.9 902.6 140.8 911.6 147.3 920.6 153.8 929.6 160.8 938.1 167.8 946.8 174.7 955.4 182.3 963.6 188.9 972.5 195.5 981.4 204.3 995.4 207.4 1000.0 M670.6 1000.0 C673.2 995.0 679.9 979.1 686.3 969.8 692.6 960.5 699.7 950.8 708.5 944.2 717.3 937.6 728.5 933.0 739.3 930.1 750.1 927.3 761.9 926.8 773.2 926.9 784.5 927.0 796.3 927.8 807.0 930.9 817.7 934.0 828.2 939.2 837.5 945.5 846.8 951.8 853.6 961.8 862.7 968.5 871.7 975.3 881.9 980.7 891.8 985.9 901.6 991.2 916.8 997.7 921.8 1000.0 M234.5 0.0 C239.0 2.9 252.3 11.8 261.4 17.3 270.6 22.7 280.0 27.9 289.4 32.8 298.9 37.7 308.3 43.3 318.3 46.7 328.3 50.2 339.0 53.5 349.4 53.6 359.7 53.6 370.4 50.2 380.6 47.0 390.7 43.9 400.4 39.2 410.1 34.7 419.7 30.1 429.5 25.5 438.4 19.8 447.3 14.0 459.3 3.3 463.5 0.0 M1600.0 391.6 C1594.9 389.6 1578.9 384.8 1569.1 379.8 1559.3 374.9 1550.3 368.1 1541.1 361.9 1531.9 355.7 1518.2 350.8 1513.9 342.8 1509.7 334.9 1511.2 322.8 1515.5 314.2 1519.8 305.6 1530.8 297.9 1539.6 291.4 1548.4 284.9 1558.3 279.5 1568.4 275.0 1578.5 270.6 1594.7 266.5 1600.0 264.8 M0.0 600.0 C5.2 601.9 20.6 609.2 31.3 611.5 42.1 613.9 53.6 613.7 64.7 613.9 75.8 614.2 87.0 613.7 98.1 613.1 109.3 612.4 120.4 610.1 131.5 610.0 142.6 610.0 154.2 610.1 164.7 613.0 175.2 615.9 186.2 620.7 194.7 627.3 203.2 634.0 211.2 643.2 215.9 652.8 220.5 662.5 222.6 674.4 222.7 685.3 222.8 696.1 219.3 707.3 216.6 718.1 213.9 728.9 209.5 739.3 206.5 750.0 203.5 760.8 201.4 771.7 198.5 782.5 195.6 793.3 192.3 803.9 189.1 814.6 185.9 825.3 180.9 835.8 179.4 846.6 177.9 857.5 178.2 869.0 180.2 879.8 182.2 890.6 187.3 900.9 191.6 911.2 195.9 921.5 200.7 931.6 205.8 941.6 210.9 951.5 216.8 961.0 222.2 970.7 227.7 980.5 235.6 995.1 238.3 1000.0 M606.1 1000.0 C608.9 995.1 617.8 980.4 623.3 970.4 628.9 960.4 634.6 950.5 639.3 940.1 644.0 929.7 646.6 918.2 651.6 908.0 656.7 897.9 661.4 886.0 669.6 879.1 677.9 872.3 690.0 869.0 700.9 866.7 711.8 864.4 723.8 865.2 735.2 865.4 746.6 865.5 758.0 866.7 769.4 867.7 780.8 868.8 792.1 870.4 803.5 871.6 814.9 872.7 826.3 873.8 837.7 874.6 849.1 875.4 860.6 875.7 872.0 876.3 883.4 877.0 894.8 877.8 906.2 878.3 917.7 878.8 929.3 877.9 940.5 879.3 951.8 880.7 963.1 883.2 973.9 886.8 984.7 890.3 994.9 896.0 1005.4 900.4 1016.0 904.7 1027.5 907.7 1037.3 913.0 1047.1 918.2 1059.3 922.9 1064.3 931.6 1069.3 940.4 1067.0 954.3 1067.5 965.7 1068.0 977.1 1067.3 994.3 1067.3 1000.0 M80.4 0.0 C85.8 1.3 102.3 4.8 113.2 7.5 124.1 10.2 135.1 12.9 145.8 16.1 156.6 19.3 167.3 22.7 177.8 26.7 188.3 30.7 198.7 35.2 208.7 40.2 218.7 45.2 228.1 51.5 238.0 56.9 247.8 62.4 257.7 67.7 267.6 72.9 277.6 78.0 287.7 82.9 297.9 87.7 308.1 92.5 318.0 98.3 328.7 101.5 339.3 104.7 350.6 106.5 361.8 106.9 372.9 107.3 384.1 104.8 395.3 103.9 406.5 103.0 417.9 103.1 428.9 101.5 440.0 99.9 451.5 98.6 461.7 94.3 471.9 90.1 480.5 82.2 490.0 76.1 499.4 70.0 508.2 62.6 518.2 57.8 528.2 53.0 539.3 50.0 550.1 47.2 560.9 44.3 572.2 42.8 583.2 40.9 594.3 38.9 605.4 36.9 616.5 35.4 627.6 34.0 638.9 33.3 650.1 32.3 661.2 31.3 672.5 30.5 683.6 29.4 694.8 28.4 706.0 27.2 717.2 25.8 728.3 24.5 739.4 22.8 750.6 21.2 761.7 19.5 772.7 17.4 783.9 16.2 795.1 15.0 806.3 14.3 817.5 14.1 828.7 13.8 840.0 14.7 851.2 14.7 862.5 14.7 873.7 14.4 884.9 14.2 896.2 13.9 907.4 13.6 918.6 13.2 929.9 12.8 941.1 12.8 952.3 12.0 963.5 11.1 974.8 10.1 985.8 8.1 996.8 6.1 1013.1 1.4 1018.5 0.0 M1600.0 423.9 C1594.6 422.3 1577.8 418.6 1567.4 414.3 1556.9 410.0 1547.7 402.3 1537.2 398.1 1526.7 393.9 1515.6 390.5 1504.5 389.1 1493.3 387.6 1481.4 391.0 1470.3 389.5 1459.3 387.9 1446.6 386.1 1438.3 379.7 1430.1 373.3 1423.3 361.4 1420.9 351.1 1418.4 340.7 1419.3 327.3 1423.6 317.6 1428.0 307.9 1438.0 300.1 1446.8 293.1 1455.5 286.1 1466.4 281.5 1476.1 275.6 1485.9 269.6 1495.1 262.8 1505.1 257.4 1515.1 252.0 1525.6 247.6 1536.2 243.4 1546.8 239.3 1558.0 236.5 1568.6 232.4 1579.2 228.4 1594.8 221.2 1600.0 219.0 M0.0 537.3 C5.3 539.4 21.3 545.7 32.0 549.9 42.6 554.2 53.0 559.4 63.8 563.0 74.7 566.6 85.9 569.7 97.1 571.6 108.4 573.5 120.0 573.5 131.4 574.6 142.9 575.6 154.4 576.1 165.7 577.9 177.0 579.7 188.4 582.0 199.3 585.5 210.1 589.1 220.8 593.8 230.8 599.3 240.8 604.8 250.4 611.4 259.2 618.6 268.1 625.8 279.7 633.0 283.7 642.5 287.6 652.0 284.9 664.9 282.9 675.8 280.9 686.8 275.3 697.5 271.6 708.4 267.9 719.2 264.8 730.3 260.8 741.1 256.9 751.9 252.1 762.3 247.8 773.0 243.5 783.6 238.9 794.2 235.0 805.0 231.2 815.8 226.9 826.6 224.6 837.8 222.3 848.9 220.7 860.6 221.2 871.9 221.8 883.2 224.8 894.6 227.6 905.7 230.4 916.8 233.8 927.9 238.0 938.5 242.2 949.2 247.7 959.3 252.8 969.6 257.9 979.8 266.2 994.9 268.8 1000.0 M554.3 1000.0 C557.4 995.3 566.6 981.3 572.7 972.0 578.9 962.6 586.1 953.8 591.3 944.0 596.5 934.2 600.6 923.6 604.0 913.0 607.5 902.4 610.1 891.4 612.1 880.4 614.1 869.4 614.9 858.2 616.3 847.1 617.6 836.0 615.7 822.9 620.1 813.8 624.5 804.6 633.6 794.4 642.7 792.3 651.8 790.2 664.3 797.2 674.7 801.1 685.1 804.9 694.5 811.8 705.0 815.5 715.5 819.1 726.7 820.9 737.7 822.9 748.7 824.9 759.9 826.1 771.0 827.5 782.1 829.0 793.2 830.5 804.3 831.6 815.4 832.8 826.6 833.9 837.8 834.6 848.9 835.2 860.2 835.2 871.4 835.3 882.5 835.3 893.7 835.2 904.9 834.8 916.1 834.4 927.3 833.0 938.5 832.7 949.6 832.5 960.9 832.5 972.0 833.3 983.2 834.2 994.2 836.6 1005.3 837.6 1016.5 838.5 1027.7 839.0 1038.9 838.9 1050.0 838.7 1061.2 836.6 1072.4 836.6 1083.5 836.6 1095.0 836.8 1105.8 839.1 1116.6 841.4 1128.3 844.4 1137.2 850.4 1146.2 856.4 1153.5 865.8 1159.4 875.0 1165.3 884.3 1168.4 895.5 1172.5 906.0 1176.5 916.4 1180.1 927.0 1183.7 937.6 1187.3 948.2 1190.1 959.1 1194.2 969.5 1198.3 979.9 1205.9 994.9 1208.3 1000.0 M1125.3 0.0 C1121.6 4.2 1111.4 18.3 1102.8 25.5 1094.2 32.6 1084.1 38.9 1073.6 42.9 1063.2 47.0 1051.6 48.8 1040.3 49.8 1029.1 50.8 1017.6 49.2 1006.2 48.8 994.8 48.4 983.5 47.5 972.1 47.4 960.7 47.3 949.3 47.8 937.9 48.4 926.6 49.0 915.2 50.3 903.9 51.0 892.5 51.7 881.1 52.0 869.8 52.3 858.4 52.7 847.0 52.7 835.6 52.9 824.2 53.2 812.8 53.5 801.5 53.8 790.1 54.1 778.7 54.3 767.3 54.8 755.9 55.3 744.6 55.9 733.2 56.9 721.9 57.8 710.5 59.0 699.2 60.5 687.9 61.9 676.7 63.4 665.4 65.3 654.2 67.2 642.9 68.9 631.9 71.7 620.9 74.5 609.9 77.9 599.4 82.1 588.8 86.3 578.5 91.4 568.7 97.0 558.8 102.5 549.3 109.0 540.0 115.6 530.7 122.1 522.1 129.7 512.7 136.1 503.3 142.5 493.9 149.4 483.6 153.9 473.3 158.3 462.0 161.4 450.8 162.8 439.7 164.1 428.1 162.6 416.7 161.8 405.4 161.1 394.1 159.7 382.8 158.2 371.5 156.7 359.9 155.9 349.1 152.9 338.2 149.8 327.7 145.0 317.6 139.8 307.6 134.6 298.3 127.7 288.6 121.8 278.9 115.9 269.1 110.0 259.2 104.3 249.4 98.7 239.3 93.4 229.4 87.7 219.5 82.1 210.0 75.8 199.9 70.5 189.9 65.2 179.8 59.6 169.1 55.8 158.5 51.9 147.3 49.3 136.1 47.4 124.9 45.5 113.4 45.5 102.0 44.6 90.7 43.7 79.3 43.0 68.0 42.0 56.7 40.9 45.4 38.5 34.0 38.2 22.7 38.0 5.7 40.0 0.0 40.3 M1579.7 0.0 L1600.0 16.6 M1600.0 450.7 C1594.5 449.8 1577.9 447.6 1567.2 444.9 1556.4 442.1 1546.2 437.0 1535.5 434.3 1524.9 431.5 1513.9 428.2 1503.0 428.2 1492.1 428.2 1481.2 432.4 1470.2 434.3 1459.3 436.2 1448.3 439.2 1437.3 439.6 1426.3 440.0 1414.8 439.5 1404.2 436.8 1393.6 434.1 1382.2 429.9 1373.8 423.4 1365.4 416.8 1357.0 407.3 1353.8 397.5 1350.5 387.7 1352.3 375.4 1354.3 364.7 1356.4 354.0 1361.6 343.6 1365.9 333.4 1370.2 323.1 1373.9 312.2 1379.9 303.1 1386.0 294.0 1393.8 285.5 1402.4 278.8 1411.0 272.1 1421.9 268.2 1431.8 263.1 1441.7 258.0 1451.9 253.6 1461.7 248.3 1471.5 243.1 1480.7 236.7 1490.5 231.5 1500.3 226.3 1510.5 221.6 1520.6 217.1 1530.7 212.5 1541.7 209.5 1551.3 204.1 1560.9 198.6 1570.0 191.9 1578.1 184.4 1586.2 176.9 1596.3 163.4 1600.0 159.3 M0.0 504.7 C5.3 506.7 21.4 512.5 32.0 516.5 42.6 520.6 52.9 525.4 63.7 529.2 74.4 533.0 85.2 536.6 96.3 539.1 107.3 541.6 118.7 542.8 130.0 544.2 141.3 545.5 152.7 546.1 164.0 547.1 175.3 548.1 186.7 549.0 198.0 550.4 209.3 551.7 220.7 552.9 231.7 555.4 242.8 557.8 253.9 560.7 264.3 565.1 274.7 569.5 284.3 576.0 294.1 581.7 303.9 587.5 314.2 592.7 323.2 599.5 332.3 606.3 342.5 613.2 348.4 622.3 354.3 631.4 359.1 643.7 358.5 654.1 357.9 664.5 350.4 675.1 344.7 684.7 339.0 694.4 330.4 702.6 324.5 712.2 318.6 721.8 314.1 732.4 309.1 742.6 304.1 752.9 299.3 763.2 294.7 773.6 290.1 784.0 285.4 794.4 281.4 805.0 277.4 815.6 273.3 826.3 270.5 837.3 267.7 848.3 265.2 859.5 264.4 870.8 263.6 882.1 264.3 893.6 265.6 904.9 267.0 916.1 269.0 927.5 272.4 938.3 275.7 949.0 281.0 959.3 285.8 969.6 290.6 979.8 298.6 994.9 301.2 1000.0 M501.5 1000.0 C505.4 995.9 517.5 983.8 525.3 975.4 533.1 967.1 541.7 959.2 548.3 950.0 554.9 940.8 560.6 930.6 564.9 920.1 569.1 909.6 571.9 898.3 573.8 887.1 575.8 875.9 576.5 864.3 576.6 852.9 576.6 841.6 575.6 830.1 574.2 818.8 572.8 807.4 568.9 796.3 567.9 785.0 566.9 773.8 563.1 759.0 568.1 751.2 573.1 743.4 587.3 739.7 597.8 738.5 608.4 737.3 620.5 741.5 631.6 744.1 642.7 746.7 653.8 749.9 664.5 753.9 675.2 757.8 685.4 762.9 695.8 767.8 706.1 772.7 715.8 778.9 726.4 783.1 737.0 787.3 748.1 790.3 759.2 793.0 770.3 795.6 781.7 797.4 792.9 799.1 804.2 800.9 815.6 802.4 827.0 803.3 838.4 804.2 849.8 804.4 861.2 804.4 872.7 804.4 884.1 804.1 895.5 803.2 906.9 802.3 918.2 800.6 929.6 799.3 940.9 798.0 952.3 796.3 963.6 795.5 975.0 794.6 986.5 794.7 997.9 794.3 1009.3 793.8 1020.8 793.5 1032.2 792.8 1043.6 792.1 1055.0 789.8 1066.3 790.0 1077.7 790.1 1089.2 791.4 1100.3 793.9 1111.4 796.4 1122.4 800.2 1132.8 804.8 1143.1 809.5 1154.2 814.2 1162.5 821.6 1170.8 829.0 1176.9 839.3 1182.6 849.1 1188.3 858.9 1191.6 870.1 1196.7 880.3 1201.8 890.6 1207.1 900.7 1213.1 910.4 1219.0 920.2 1225.3 929.9 1232.4 938.8 1239.5 947.7 1247.0 956.5 1255.7 963.8 1264.3 971.2 1274.6 976.6 1284.3 982.6 1294.0 988.6 1308.9 997.1 1313.8 1000.0 M0.0 71.4 C5.6 71.0 22.5 68.8 33.8 68.9 45.1 69.0 56.3 71.3 67.6 72.1 78.8 73.0 90.1 73.4 101.4 74.0 112.7 74.5 124.2 73.8 135.3 75.3 146.4 76.9 157.6 79.6 168.2 83.5 178.7 87.3 188.6 93.1 198.5 98.6 208.3 104.1 217.8 110.4 227.4 116.4 237.0 122.4 246.6 128.3 255.9 134.7 265.3 141.1 274.3 148.0 283.4 154.7 292.5 161.4 301.2 168.7 310.6 175.0 320.0 181.2 329.6 187.3 339.8 192.2 349.9 197.1 360.5 201.6 371.4 204.4 382.2 207.3 393.6 209.2 404.8 209.4 416.0 209.5 427.4 207.4 438.4 205.3 449.5 203.2 460.5 200.3 471.3 196.8 482.0 193.3 492.7 189.3 502.8 184.3 512.9 179.4 522.6 173.4 532.1 167.2 541.5 161.0 550.3 153.8 559.6 147.3 568.9 140.9 578.1 134.4 587.8 128.5 597.5 122.7 607.3 117.0 617.6 112.3 627.8 107.6 638.5 103.5 649.3 100.2 660.0 96.9 671.2 94.6 682.3 92.5 693.4 90.3 704.6 88.8 715.8 87.6 727.1 86.3 738.4 85.6 749.7 85.1 761.0 84.6 772.3 84.9 783.6 84.8 794.9 84.7 806.2 84.8 817.5 84.7 828.9 84.7 840.2 84.4 851.5 84.4 862.8 84.4 874.1 84.9 885.4 84.6 896.7 84.4 908.0 83.4 919.3 82.8 930.6 82.2 941.9 80.7 953.1 80.9 964.4 81.2 975.7 82.6 986.8 84.5 998.0 86.4 1008.8 90.1 1019.8 92.5 1030.8 95.0 1041.9 97.8 1053.0 99.2 1064.2 100.6 1075.7 101.4 1086.9 100.9 1098.1 100.3 1109.9 99.5 1120.4 95.8 1130.8 92.1 1141.0 86.1 1149.4 78.9 1157.8 71.7 1163.2 60.9 1170.6 52.4 1178.0 43.9 1184.8 34.1 1193.8 27.9 1202.8 21.6 1213.9 16.9 1224.7 14.9 1235.5 12.9 1247.2 15.6 1258.5 15.8 1269.8 16.1 1281.2 17.1 1292.4 16.3 1303.7 15.5 1315.0 13.8 1325.9 11.1 1336.8 8.4 1352.6 1.8 1357.9 0.0 M1492.2 0.0 C1496.9 3.2 1511.5 12.3 1520.4 19.4 1529.4 26.5 1538.4 33.8 1545.7 42.4 1553.1 51.0 1560.5 60.5 1564.7 70.8 1568.8 81.1 1571.3 93.1 1570.8 104.1 1570.2 115.1 1565.9 126.6 1561.4 136.9 1556.9 147.3 1551.3 158.0 1543.9 166.3 1536.4 174.6 1526.1 180.5 1516.6 186.7 1507.1 193.0 1496.8 198.1 1486.8 203.7 1476.8 209.2 1467.1 215.2 1456.7 220.0 1446.4 224.8 1435.7 229.1 1424.8 232.4 1414.0 235.8 1402.6 237.8 1391.5 240.2 1380.3 242.7 1368.9 244.3 1357.9 247.1 1346.8 249.9 1336.0 253.6 1325.2 257.2 1314.3 260.8 1303.3 264.2 1292.9 268.6 1282.4 273.1 1269.6 276.5 1262.4 284.1 1255.3 291.6 1249.5 303.9 1250.0 313.9 1250.6 323.9 1259.7 334.5 1265.8 344.1 1271.8 353.6 1280.4 361.8 1286.4 371.4 1292.4 381.1 1296.9 391.6 1301.8 401.9 1306.7 412.2 1309.7 423.6 1315.6 433.3 1321.4 442.9 1328.7 452.2 1336.9 459.9 1345.2 467.5 1355.0 474.3 1365.1 479.2 1375.3 484.1 1386.6 488.2 1397.6 489.3 1408.7 490.3 1420.4 487.9 1431.5 485.6 1442.6 483.3 1453.2 478.2 1464.2 475.4 1475.3 472.7 1486.6 469.9 1497.9 469.1 1509.2 468.3 1520.7 469.7 1532.0 470.7 1543.4 471.7 1554.7 473.5 1566.0 475.0 1577.4 476.4 1594.3 478.7 1600.0 479.4 M0.0 476.5 C5.2 478.6 20.9 484.8 31.3 489.1 41.7 493.4 51.9 498.2 62.5 502.0 73.0 505.9 83.8 509.5 94.7 512.2 105.6 514.9 116.8 516.7 127.9 518.0 139.1 519.4 150.3 519.9 161.6 520.5 172.8 521.1 184.1 521.2 195.3 521.4 206.6 521.7 217.9 521.9 229.1 522.1 240.4 522.4 251.7 522.0 262.9 523.1 274.0 524.2 285.6 525.1 296.1 528.6 306.6 532.1 316.3 538.4 326.0 544.1 335.6 549.9 344.8 556.5 353.9 563.1 363.0 569.7 372.0 576.6 380.6 583.8 389.2 591.1 397.2 599.0 405.4 606.7 413.7 614.3 421.5 622.5 430.0 629.8 438.6 637.1 446.9 645.4 456.8 650.2 466.7 655.1 478.3 656.7 489.3 658.8 500.3 660.9 511.7 660.9 522.8 662.8 533.9 664.8 544.9 667.2 555.7 670.5 566.4 673.8 576.9 678.0 587.2 682.5 597.5 687.0 607.5 692.3 617.5 697.3 627.6 702.4 637.3 708.2 647.5 712.9 657.7 717.7 668.4 721.4 678.7 725.7 689.1 730.0 699.6 734.1 709.8 738.9 720.0 743.6 729.7 749.6 739.9 754.3 750.1 758.9 760.5 763.6 771.2 766.9 781.9 770.3 793.0 772.5 804.1 774.3 815.2 776.0 826.5 777.0 837.7 777.4 848.9 777.8 860.2 777.4 871.5 776.9 882.7 776.3 893.9 775.2 905.1 774.0 916.3 772.7 927.4 771.0 938.6 769.4 949.7 767.8 960.9 766.2 972.0 764.3 983.1 762.5 994.2 760.5 1005.2 758.4 1016.3 756.3 1027.2 753.3 1038.3 751.6 1049.4 749.9 1060.7 747.9 1071.8 748.1 1083.0 748.3 1094.4 749.9 1105.2 752.9 1115.9 755.8 1126.3 760.7 1136.3 765.8 1146.2 771.0 1156.2 776.8 1164.8 783.8 1173.5 790.8 1181.7 798.9 1188.3 807.9 1195.0 816.8 1199.5 827.3 1204.6 837.4 1209.7 847.4 1213.4 858.2 1218.8 868.0 1224.2 877.9 1230.2 887.5 1237.0 896.4 1243.7 905.4 1251.2 914.0 1259.2 921.8 1267.3 929.6 1275.9 937.1 1285.3 943.2 1294.6 949.3 1305.0 954.2 1315.4 958.3 1325.9 962.3 1337.1 964.4 1347.9 967.3 1358.8 970.3 1369.8 972.6 1380.6 975.9 1391.3 979.2 1401.9 983.2 1412.4 987.2 1422.9 991.2 1438.4 997.9 1443.6 1000.0 M351.1 1000.0 C347.1 996.0 333.5 984.9 327.0 975.8 320.4 966.7 314.9 956.0 311.5 945.3 308.1 934.6 307.0 922.8 306.7 911.4 306.4 900.1 308.2 888.6 309.7 877.3 311.2 866.0 313.2 854.6 316.0 843.5 318.8 832.5 322.0 821.4 326.4 810.9 330.9 800.4 336.4 790.2 342.8 780.8 349.2 771.4 356.4 762.1 364.6 754.4 372.9 746.7 382.2 738.7 392.5 734.6 402.7 730.5 415.1 728.8 426.0 729.9 437.0 731.0 448.1 736.3 458.3 741.2 468.5 746.1 478.3 752.4 487.4 759.3 496.4 766.2 505.1 774.0 512.4 782.7 519.6 791.4 525.9 801.4 530.7 811.6 535.4 821.9 539.0 833.1 541.0 844.3 542.9 855.4 543.6 867.2 542.6 878.5 541.6 889.7 539.5 901.5 535.1 911.8 530.8 922.2 524.0 931.9 516.6 940.5 509.2 949.0 499.8 956.0 490.9 963.1 481.9 970.2 472.7 977.1 463.1 983.2 453.5 989.4 438.2 997.2 433.2 1000.0 M1388.0 39.8 C1399.0 38.6 1410.4 38.7 1421.4 39.8 1432.5 40.9 1443.6 43.1 1454.3 46.3 1464.9 49.4 1476.2 52.8 1485.3 58.7 1494.4 64.6 1504.1 72.5 1509.0 81.8 1514.0 91.0 1516.2 103.5 1515.2 114.0 1514.2 124.6 1508.6 135.5 1503.0 145.0 1497.5 154.5 1489.9 163.3 1481.8 170.8 1473.7 178.3 1464.3 185.0 1454.4 189.9 1444.6 194.8 1433.6 198.6 1422.7 200.4 1411.9 202.3 1400.5 201.2 1389.3 201.1 1378.2 201.0 1367.0 199.4 1355.8 199.7 1344.7 200.1 1333.6 203.1 1322.5 203.2 1311.4 203.3 1299.1 204.5 1289.4 200.5 1279.7 196.5 1270.4 187.9 1264.2 179.2 1257.9 170.5 1254.1 159.0 1252.0 148.3 1249.8 137.5 1249.4 125.6 1251.4 114.9 1253.3 104.2 1256.9 92.3 1263.5 84.1 1270.1 75.8 1281.0 70.3 1290.9 65.5 1300.8 60.8 1312.2 58.7 1322.9 55.5 1333.6 52.3 1344.3 49.1 1355.2 46.4 1366.0 43.8 1376.9 40.9 1388.0 39.8 Z M0.0 97.3 C5.6 96.8 22.3 94.1 33.5 94.0 44.7 93.8 56.0 95.7 67.2 96.4 78.4 97.1 89.6 97.7 100.9 98.4 112.1 99.2 123.5 98.9 134.5 100.7 145.5 102.6 156.6 105.5 167.0 109.6 177.4 113.6 187.2 119.4 196.9 125.1 206.5 130.8 215.8 137.3 225.0 143.8 234.1 150.3 243.1 157.2 251.9 164.2 260.6 171.2 269.0 178.7 277.6 186.0 286.1 193.3 294.5 200.9 303.1 208.1 311.8 215.3 320.3 222.7 329.4 229.3 338.4 235.9 347.3 243.5 357.4 248.0 367.5 252.4 379.0 255.6 389.9 255.8 400.8 256.0 412.1 252.3 422.8 249.0 433.5 245.7 443.6 240.5 454.0 236.1 464.3 231.8 474.7 227.5 485.0 223.0 495.3 218.5 505.8 214.2 515.8 209.1 525.8 204.1 535.6 198.5 545.2 192.6 554.8 186.8 564.0 180.3 573.5 174.2 582.9 168.1 592.3 161.7 601.9 156.0 611.6 150.3 621.4 144.7 631.5 139.9 641.7 135.0 652.0 130.5 662.7 126.9 673.3 123.3 684.3 120.5 695.3 118.3 706.3 116.1 717.5 114.6 728.7 113.5 739.8 112.5 751.1 112.1 762.4 111.9 773.6 111.6 784.9 111.8 796.1 112.0 807.3 112.2 818.6 112.6 829.8 113.3 841.0 114.0 852.2 115.3 863.4 116.1 874.7 116.9 885.9 118.0 897.1 118.3 908.3 118.6 919.6 117.4 930.9 117.9 942.1 118.3 953.5 118.6 964.4 120.9 975.3 123.2 986.0 127.3 996.2 131.8 1006.5 136.4 1016.1 142.5 1025.7 148.3 1035.3 154.1 1045.0 160.1 1053.9 166.8 1062.9 173.4 1073.5 179.5 1079.4 188.4 1085.4 197.4 1086.7 209.5 1089.5 220.4 1092.4 231.2 1093.4 242.6 1096.4 253.4 1099.4 264.2 1102.5 275.2 1107.5 285.2 1112.4 295.2 1118.8 304.9 1126.2 313.2 1133.5 321.4 1142.5 328.7 1151.8 335.0 1161.0 341.2 1171.5 345.7 1181.6 350.6 1191.7 355.6 1202.7 358.9 1212.3 364.7 1221.9 370.4 1231.4 377.0 1239.1 385.0 1246.7 393.0 1252.5 403.0 1258.2 412.7 1263.8 422.3 1267.8 433.0 1272.9 443.0 1278.0 453.0 1282.7 463.4 1289.0 472.7 1295.3 481.9 1302.5 490.8 1310.6 498.4 1318.8 506.0 1328.1 513.0 1337.9 518.1 1347.8 523.2 1358.8 527.4 1369.6 529.2 1380.5 530.9 1392.2 530.1 1403.3 528.6 1414.3 527.2 1425.2 523.7 1435.9 520.4 1446.7 517.1 1456.9 512.0 1467.6 508.7 1478.3 505.5 1489.3 502.0 1500.4 500.9 1511.4 499.8 1522.8 501.0 1534.0 502.2 1545.1 503.3 1556.2 505.5 1567.3 507.8 1578.3 510.1 1594.5 514.5 1600.0 515.9 M0.0 448.8 C5.2 451.0 21.0 457.7 31.4 462.3 41.9 466.8 52.1 472.1 62.7 476.2 73.4 480.3 84.2 484.1 95.2 486.9 106.3 489.7 117.6 491.6 128.9 492.8 140.2 494.1 151.7 494.3 163.1 494.3 174.5 494.3 186.0 493.7 197.3 493.0 208.7 492.2 220.2 491.7 231.5 490.1 242.7 488.5 253.9 485.9 265.0 483.4 276.1 480.8 287.0 475.2 298.1 474.6 309.1 473.9 321.4 475.0 331.3 479.4 341.3 483.9 349.1 493.6 357.6 501.2 366.1 508.8 374.1 517.0 382.5 524.8 390.8 532.5 399.4 540.1 407.7 547.9 416.1 555.6 424.1 563.8 432.6 571.4 441.2 578.9 449.8 586.6 459.1 593.2 468.3 599.7 478.1 605.9 488.3 610.9 498.4 616.0 509.4 619.5 520.1 623.4 530.9 627.3 541.9 630.5 552.5 634.5 563.2 638.6 573.8 642.9 584.2 647.6 594.6 652.3 604.8 657.5 614.8 662.8 624.9 668.2 634.6 674.3 644.6 679.7 654.7 685.1 664.8 690.5 675.1 695.4 685.4 700.4 696.0 704.6 706.3 709.4 716.7 714.3 726.8 719.5 737.1 724.5 747.3 729.5 757.3 735.4 767.8 739.5 778.4 743.7 789.4 747.2 800.6 749.4 811.7 751.6 823.2 752.4 834.6 752.7 846.0 753.1 857.4 752.1 868.8 751.4 880.2 750.6 891.6 749.4 902.9 748.1 914.3 746.9 925.6 745.7 936.9 743.8 948.2 742.0 959.4 739.9 970.5 737.2 981.5 734.5 992.4 730.8 1003.3 727.4 1014.2 724.0 1024.9 719.7 1035.9 716.9 1046.9 714.2 1058.2 711.4 1069.5 710.7 1080.8 710.1 1092.6 710.7 1103.6 713.1 1114.6 715.5 1125.5 719.9 1135.5 725.3 1145.4 730.7 1154.6 737.8 1163.2 745.3 1171.7 752.7 1179.6 761.2 1186.8 770.0 1194.1 778.8 1200.7 788.2 1206.6 797.9 1212.5 807.6 1217.1 818.2 1222.4 828.3 1227.7 838.4 1232.4 848.9 1238.5 858.5 1244.5 868.1 1251.3 877.4 1258.8 886.0 1266.3 894.6 1274.4 902.9 1283.3 909.9 1292.2 916.9 1302.1 923.1 1312.3 927.8 1322.6 932.5 1333.9 935.3 1345.0 938.1 1356.0 940.8 1367.5 941.9 1378.7 944.2 1389.9 946.4 1400.9 949.4 1412.1 951.6 1423.3 953.9 1434.5 956.2 1445.8 957.6 1457.1 959.0 1468.6 960.4 1479.9 960.1 1491.3 959.8 1503.4 959.7 1513.7 955.7 1523.9 951.7 1532.2 942.6 1541.4 935.9 1550.6 929.3 1559.1 921.4 1568.9 915.7 1578.6 910.0 1594.8 904.0 1600.0 901.6 M412.3 791.4 C422.7 788.8 434.8 788.8 445.3 791.0 455.8 793.2 466.6 798.3 475.3 804.6 484.1 810.9 492.1 819.6 497.9 828.7 503.7 837.8 508.2 848.8 510.1 859.4 511.9 870.0 512.1 882.1 509.2 892.3 506.3 902.6 499.9 912.7 492.9 920.9 485.9 929.1 476.2 935.6 466.9 941.5 457.7 947.4 447.7 953.0 437.3 956.4 426.9 959.9 415.5 962.5 404.8 962.2 394.0 961.8 381.7 959.6 372.8 954.3 363.8 949.0 355.3 939.7 351.0 930.2 346.8 920.7 346.9 908.3 347.1 897.4 347.2 886.5 349.3 875.3 352.1 864.6 354.8 853.9 358.4 843.1 363.6 833.5 368.8 823.9 375.2 814.0 383.3 807.0 391.5 800.0 402.0 794.1 412.3 791.4 Z M1390.2 103.8 C1393.3 103.0 1397.2 103.9 1400.6 104.4 1404.0 105.0 1407.3 106.2 1410.6 107.3 1413.9 108.4 1417.3 109.5 1420.4 111.0 1423.5 112.5 1426.7 114.2 1429.4 116.3 1432.1 118.4 1434.9 120.8 1436.8 123.6 1438.7 126.4 1440.4 129.7 1440.7 133.0 1441.0 136.2 1440.3 140.2 1438.7 143.1 1437.1 145.9 1434.1 148.6 1431.1 150.1 1428.2 151.7 1424.4 152.4 1421.1 152.3 1417.7 152.1 1414.3 150.6 1411.2 149.2 1408.1 147.7 1405.2 145.6 1402.5 143.4 1399.8 141.2 1397.4 138.6 1395.0 136.1 1392.7 133.5 1390.4 130.9 1388.3 128.1 1386.2 125.3 1383.5 122.6 1382.4 119.5 1381.3 116.3 1380.4 112.0 1381.7 109.4 1383.0 106.8 1387.0 104.7 1390.2 103.8 Z M0.0 121.8 C5.6 121.0 22.5 117.6 33.9 117.2 45.2 116.7 56.7 118.4 68.1 119.1 79.5 119.8 90.9 120.5 102.2 121.6 113.6 122.7 125.1 123.3 136.2 125.8 147.3 128.3 158.3 131.9 168.7 136.5 179.0 141.2 188.8 147.3 198.3 153.7 207.7 160.1 216.6 167.4 225.3 174.7 234.0 182.0 242.5 189.7 250.7 197.7 258.9 205.6 266.9 213.8 274.6 222.2 282.4 230.6 289.9 239.2 297.1 248.0 304.3 256.9 311.2 266.0 317.9 275.3 324.5 284.6 330.1 294.7 336.9 303.8 343.6 312.9 349.6 327.2 358.4 329.8 367.2 332.5 379.8 325.0 389.5 319.9 399.2 314.7 407.6 305.9 416.7 299.1 425.9 292.3 435.0 285.3 444.4 278.9 453.9 272.6 463.7 266.6 473.6 261.0 483.5 255.3 493.8 250.4 503.9 245.0 514.0 239.7 524.2 234.6 534.2 229.1 544.2 223.5 554.0 217.7 563.8 211.7 573.5 205.8 583.0 199.5 592.8 193.6 602.6 187.7 612.4 181.7 622.4 176.3 632.4 170.9 642.6 165.6 653.1 161.1 663.5 156.5 674.2 152.3 685.1 149.0 696.0 145.8 707.3 143.4 718.5 141.7 729.8 140.0 741.2 139.2 752.6 138.6 764.0 138.0 775.5 137.9 786.9 138.2 798.3 138.4 809.7 138.9 821.1 140.1 832.4 141.3 843.6 143.7 854.9 145.5 866.2 147.3 877.4 149.5 888.7 150.9 900.0 152.2 911.6 152.1 922.9 153.5 934.2 154.9 945.8 155.7 956.5 159.2 967.2 162.7 977.6 168.3 987.1 174.5 996.5 180.7 1005.2 188.5 1013.2 196.6 1021.2 204.6 1028.9 213.4 1034.9 223.0 1040.8 232.6 1044.8 243.5 1048.7 254.2 1052.7 264.9 1054.4 276.4 1058.3 287.1 1062.2 297.8 1066.4 308.7 1072.2 318.4 1078.0 328.1 1085.3 337.2 1093.2 345.2 1101.2 353.3 1110.7 360.0 1120.0 366.6 1129.3 373.1 1139.4 378.6 1149.2 384.5 1158.9 390.4 1169.3 395.5 1178.5 402.1 1187.8 408.7 1197.3 415.5 1204.9 423.8 1212.5 432.2 1217.8 442.6 1224.2 452.1 1230.5 461.6 1236.1 471.6 1242.8 480.8 1249.6 490.0 1256.8 499.0 1264.7 507.1 1272.6 515.3 1281.0 523.3 1290.4 529.6 1299.7 536.0 1310.2 541.1 1320.7 545.4 1331.3 549.6 1342.4 553.1 1353.5 555.1 1364.7 557.2 1376.2 557.9 1387.6 557.8 1399.0 557.7 1410.4 556.3 1421.7 554.7 1433.0 553.0 1444.2 550.6 1455.3 547.9 1466.3 545.2 1477.0 540.3 1488.2 538.4 1499.3 536.6 1511.2 534.8 1522.1 536.8 1532.9 538.8 1544.5 543.9 1553.4 550.3 1562.2 556.8 1572.1 565.9 1575.2 575.7 1578.3 585.6 1571.8 598.3 1571.8 609.5 1571.7 620.7 1570.1 633.7 1574.8 642.9 1579.5 652.2 1595.8 661.2 1600.0 664.9 M0.0 420.9 C5.2 423.2 20.7 430.0 31.2 434.5 41.6 439.0 51.9 443.7 62.5 447.8 73.0 451.9 83.6 456.2 94.6 459.1 105.5 462.0 116.7 464.3 128.0 465.4 139.2 466.4 150.7 466.4 161.9 465.5 173.2 464.6 184.5 462.8 195.5 460.0 206.4 457.2 217.2 453.3 227.5 448.7 237.8 444.1 247.1 437.2 257.3 432.3 267.5 427.5 278.0 423.1 288.8 419.5 299.5 416.0 310.9 412.0 321.8 411.3 332.7 410.6 345.4 410.2 354.5 415.1 363.5 420.1 369.7 431.8 376.2 441.0 382.7 450.2 387.1 461.0 393.3 470.4 399.5 479.9 406.2 489.1 413.5 497.7 420.7 506.4 429.0 514.3 436.8 522.5 444.7 530.7 452.3 539.1 460.6 546.8 468.9 554.5 477.6 562.0 486.6 568.7 495.7 575.5 505.3 581.7 515.1 587.3 524.9 593.0 535.3 597.7 545.5 602.6 555.7 607.5 566.1 612.0 576.3 616.9 586.6 621.8 596.8 626.7 606.9 632.0 616.9 637.2 626.8 642.7 636.8 648.2 646.7 653.7 656.4 659.5 666.4 664.8 676.4 670.2 686.5 675.3 696.7 680.4 706.8 685.5 717.1 690.3 727.3 695.3 737.4 700.3 747.4 705.8 757.7 710.5 768.1 715.1 778.4 720.0 789.3 723.1 800.1 726.2 811.5 728.0 822.7 728.9 834.0 729.7 845.4 729.0 856.7 728.3 868.0 727.7 879.3 726.1 890.5 724.8 901.8 723.5 913.1 722.3 924.3 720.4 935.4 718.5 946.7 716.4 957.5 713.2 968.4 710.1 978.9 705.8 989.4 701.5 999.9 697.2 1010.0 691.9 1020.4 687.5 1030.9 683.1 1041.2 677.9 1052.1 675.1 1062.9 672.2 1074.4 670.4 1085.6 670.4 1096.8 670.3 1108.6 671.5 1119.3 674.7 1130.0 677.9 1140.6 683.1 1149.6 689.6 1158.7 696.1 1166.4 704.9 1173.6 713.6 1180.9 722.2 1187.0 731.9 1193.2 741.4 1199.5 750.8 1205.5 760.5 1211.2 770.3 1216.8 780.1 1222.0 790.2 1227.4 800.2 1232.7 810.2 1237.4 820.6 1243.2 830.3 1249.0 840.0 1255.3 849.6 1262.3 858.4 1269.4 867.2 1277.2 875.7 1285.7 883.1 1294.2 890.4 1303.6 897.3 1313.5 902.4 1323.5 907.5 1334.6 911.0 1345.6 913.6 1356.5 916.2 1368.0 917.3 1379.3 917.9 1390.6 918.5 1402.2 918.8 1413.3 917.1 1424.4 915.5 1435.4 912.1 1445.9 908.0 1456.3 903.8 1466.1 897.7 1475.9 892.0 1485.7 886.3 1495.0 879.8 1504.7 873.9 1514.4 867.9 1523.6 861.0 1534.0 856.6 1544.3 852.2 1555.6 850.1 1566.6 847.5 1577.6 844.8 1594.4 841.9 1600.0 840.8 M415.5 855.8 C419.1 853.9 423.2 852.7 427.2 852.0 431.2 851.4 435.6 851.4 439.5 852.1 443.4 852.9 447.6 854.4 450.9 856.6 454.2 858.9 457.3 862.1 459.4 865.5 461.5 868.9 463.1 873.1 463.4 877.0 463.7 881.0 462.6 885.4 461.0 889.0 459.3 892.6 456.5 896.0 453.6 898.8 450.7 901.5 447.1 903.8 443.4 905.6 439.8 907.4 435.7 908.7 431.7 909.5 427.7 910.2 423.4 910.6 419.4 910.1 415.4 909.6 411.1 908.4 407.7 906.4 404.3 904.3 400.9 901.2 399.1 897.7 397.2 894.3 396.5 889.7 396.5 885.7 396.5 881.7 397.5 877.4 399.0 873.7 400.6 870.0 403.1 866.5 405.9 863.5 408.6 860.5 411.9 857.7 415.5 855.8 Z M0.0 147.7 C5.6 146.5 22.4 141.8 33.8 140.9 45.1 140.0 56.7 141.5 68.2 142.2 79.7 143.0 91.2 143.7 102.6 145.2 114.0 146.7 125.6 148.0 136.6 151.1 147.6 154.2 158.5 158.4 168.6 163.7 178.7 169.0 188.2 175.9 197.1 183.0 206.1 190.1 214.5 198.2 222.5 206.4 230.5 214.6 238.0 223.4 245.2 232.3 252.4 241.3 259.5 250.5 265.6 260.2 271.7 269.9 278.3 279.8 281.8 290.5 285.3 301.2 287.7 313.4 286.6 324.4 285.5 335.4 281.3 347.3 275.3 356.6 269.2 365.9 259.0 372.7 250.3 380.1 241.5 387.5 231.9 393.9 222.8 400.9 213.7 407.9 205.3 416.3 195.5 422.0 185.6 427.6 174.7 432.5 163.7 434.9 152.7 437.2 140.7 437.3 129.4 436.3 118.0 435.3 106.8 431.9 95.7 428.9 84.6 425.8 73.8 421.9 62.9 418.1 52.1 414.2 41.1 410.6 30.6 406.0 20.1 401.3 5.1 392.8 0.0 390.1 M731.9 167.7 C743.2 166.3 754.6 165.7 766.0 165.4 777.4 165.1 788.8 165.0 800.1 165.7 811.5 166.5 822.8 168.1 834.0 169.8 845.2 171.6 856.3 174.3 867.5 176.4 878.7 178.5 890.0 180.1 901.1 182.6 912.2 185.0 923.7 186.9 934.1 191.2 944.5 195.4 954.5 201.5 963.5 208.2 972.6 214.9 980.9 223.1 988.4 231.6 995.8 240.1 1002.6 249.4 1008.3 259.2 1014.0 269.0 1017.8 279.9 1022.6 290.2 1027.4 300.5 1031.5 311.2 1037.0 321.1 1042.4 331.1 1048.4 340.9 1055.3 349.9 1062.1 359.0 1070.0 367.3 1078.1 375.3 1086.1 383.3 1095.3 390.2 1103.7 397.9 1112.1 405.5 1120.8 412.9 1128.4 421.4 1136.0 429.8 1142.8 439.1 1149.1 448.5 1155.5 457.9 1159.9 468.7 1166.6 477.8 1173.3 486.9 1180.9 495.5 1189.4 502.8 1198.0 510.1 1208.7 515.0 1217.9 521.6 1227.2 528.3 1235.5 536.2 1244.8 542.6 1254.2 549.0 1263.7 555.7 1274.0 560.2 1284.3 564.6 1295.8 566.7 1306.9 569.3 1317.9 571.9 1329.1 574.1 1340.4 575.8 1351.6 577.5 1363.0 578.5 1374.3 579.6 1385.6 580.7 1397.0 581.0 1408.3 582.3 1419.6 583.5 1431.1 584.5 1442.1 587.1 1453.2 589.6 1465.2 591.7 1474.6 597.4 1483.9 603.1 1491.6 612.3 1498.2 621.3 1504.8 630.3 1508.4 641.6 1514.1 651.5 1519.8 661.4 1525.6 671.2 1532.2 680.4 1538.8 689.6 1547.3 697.6 1553.8 706.9 1560.2 716.1 1568.0 725.7 1570.9 736.1 1573.9 746.5 1575.4 760.0 1571.3 769.3 1567.1 778.6 1554.7 784.5 1546.2 792.0 1537.7 799.4 1528.9 806.7 1520.2 814.1 1511.6 821.5 1503.3 829.3 1494.3 836.2 1485.3 843.2 1475.7 849.5 1466.2 855.7 1456.7 862.0 1447.3 868.4 1437.3 873.7 1427.2 879.1 1417.0 884.6 1406.2 887.8 1395.5 891.1 1383.8 893.0 1372.6 893.0 1361.4 893.1 1349.7 891.3 1338.9 888.1 1328.2 884.9 1317.6 879.8 1308.1 873.8 1298.6 867.8 1289.8 860.1 1281.8 852.1 1273.8 844.1 1266.6 835.1 1260.1 825.8 1253.7 816.4 1248.5 806.2 1243.2 796.1 1238.0 786.0 1233.5 775.6 1228.6 765.3 1223.7 755.0 1218.8 744.7 1214.1 734.4 1209.3 724.0 1204.9 713.5 1200.1 703.2 1195.3 692.9 1190.5 682.6 1185.1 672.5 1179.8 662.5 1175.4 651.2 1168.1 643.0 1160.7 634.8 1151.4 626.0 1141.3 623.1 1131.2 620.2 1118.7 624.1 1107.5 625.6 1096.3 627.1 1085.0 629.3 1074.0 632.3 1063.0 635.2 1052.2 638.8 1041.7 643.1 1031.2 647.4 1021.2 653.0 1011.0 658.0 1000.8 663.1 990.9 668.7 980.6 673.5 970.2 678.3 959.9 683.1 949.1 686.9 938.4 690.6 927.4 693.6 916.3 696.0 905.2 698.5 893.9 700.2 882.6 701.8 871.4 703.4 860.0 705.0 848.7 705.4 837.3 705.9 825.8 706.1 814.6 704.6 803.4 703.2 792.2 700.2 781.5 696.7 770.7 693.1 760.4 688.1 750.0 683.4 739.7 678.7 729.5 673.6 719.3 668.5 709.1 663.4 699.0 658.2 688.9 652.9 678.9 647.5 668.9 642.0 659.0 636.5 649.0 630.9 639.2 625.2 629.2 619.7 619.3 614.2 609.3 608.7 599.3 603.2 589.3 597.8 579.2 592.6 569.3 587.0 559.3 581.5 549.2 576.2 539.7 570.0 530.1 563.9 520.6 557.5 511.9 550.2 503.2 542.9 495.1 534.8 487.7 526.1 480.4 517.5 474.0 508.0 467.8 498.5 461.5 489.0 455.4 479.3 450.3 469.2 445.1 459.1 440.4 448.6 437.0 437.8 433.7 427.0 430.7 415.6 430.1 404.4 429.4 393.2 430.8 381.6 433.2 370.6 435.6 359.6 439.5 348.5 444.5 338.4 449.5 328.3 455.9 318.5 463.4 310.1 470.8 301.7 480.1 294.7 489.3 288.0 498.4 281.3 508.5 275.8 518.2 269.8 527.9 263.9 537.8 258.2 547.5 252.3 557.2 246.3 566.8 240.3 576.5 234.2 586.1 228.2 595.6 221.8 605.3 216.0 615.1 210.2 625.0 204.5 635.1 199.3 645.2 194.1 655.6 189.2 666.1 185.0 676.7 180.8 687.5 176.9 698.4 174.1 709.4 171.2 720.7 169.2 731.9 167.7 Z M0.0 183.9 C5.0 181.4 19.5 172.0 30.1 169.3 40.7 166.5 52.3 167.4 63.5 167.5 74.7 167.6 85.9 168.5 97.0 170.0 108.1 171.4 119.4 172.9 130.0 176.2 140.6 179.5 151.1 184.1 160.7 189.7 170.3 195.2 179.3 202.2 187.6 209.7 195.8 217.2 203.2 225.8 210.2 234.5 217.3 243.1 223.8 252.4 229.7 261.8 235.7 271.3 243.0 280.7 246.1 291.1 249.3 301.4 251.4 313.9 248.7 324.0 246.0 334.0 237.4 343.1 230.0 351.4 222.7 359.6 213.3 366.3 204.7 373.4 196.1 380.6 188.1 389.1 178.5 394.5 168.9 399.8 158.0 404.4 147.2 405.8 136.5 407.2 124.9 404.9 113.9 403.0 102.9 401.1 92.2 397.5 81.4 394.4 70.7 391.2 59.4 388.9 49.4 384.1 39.5 379.4 29.7 373.3 21.5 365.9 13.2 358.6 3.6 344.4 0.0 340.1 M710.4 199.8 C721.4 197.3 732.8 195.7 744.1 194.6 755.4 193.6 766.8 193.5 778.2 193.6 789.5 193.6 800.9 194.1 812.2 195.0 823.5 196.0 834.8 197.7 846.0 199.5 857.2 201.4 868.5 203.3 879.5 206.2 890.4 209.1 901.6 212.1 911.8 216.9 922.0 221.7 931.6 228.2 940.5 235.2 949.3 242.2 957.5 250.3 965.0 258.8 972.5 267.3 979.2 276.6 985.4 286.1 991.7 295.6 996.8 305.8 1002.5 315.6 1008.3 325.4 1013.8 335.4 1019.9 344.9 1026.1 354.5 1032.5 363.9 1039.4 372.9 1046.2 382.0 1053.7 390.5 1061.0 399.3 1068.2 408.1 1076.0 416.4 1082.7 425.6 1089.4 434.7 1095.9 444.2 1101.2 454.2 1106.5 464.2 1111.3 474.8 1114.3 485.6 1117.3 496.5 1119.8 508.2 1119.1 519.2 1118.5 530.2 1115.0 541.8 1110.2 551.8 1105.4 561.9 1098.2 571.4 1090.3 579.4 1082.4 587.3 1072.6 593.6 1063.1 599.7 1053.5 605.8 1043.0 610.4 1032.9 615.7 1022.9 621.0 1012.8 626.3 1002.7 631.5 992.6 636.8 982.6 642.1 972.3 646.9 962.0 651.8 951.7 656.5 941.1 660.6 930.5 664.7 919.7 668.4 908.7 671.4 897.8 674.3 886.6 676.6 875.4 678.3 864.1 680.0 852.7 681.4 841.4 681.5 830.1 681.6 818.6 680.9 807.5 679.0 796.3 677.1 785.3 673.6 774.6 670.0 763.9 666.3 753.4 661.7 743.1 657.0 732.7 652.4 722.5 647.3 712.4 642.1 702.3 637.0 692.3 631.5 682.3 626.1 672.3 620.6 662.5 615.0 652.6 609.3 642.7 603.7 632.9 597.9 623.2 592.1 613.4 586.3 603.6 580.5 594.0 574.5 584.3 568.4 574.6 562.5 565.3 556.0 555.9 549.5 546.4 543.1 538.0 535.6 529.6 528.0 521.7 519.6 515.0 510.5 508.3 501.4 502.7 491.3 497.9 481.1 493.0 470.8 489.0 460.0 486.1 449.1 483.3 438.2 481.6 426.8 480.7 415.5 479.9 404.2 480.0 392.6 481.2 381.4 482.4 370.2 483.6 358.3 487.8 348.0 491.9 337.7 498.7 327.9 506.1 319.7 513.6 311.4 523.6 305.1 532.7 298.3 541.7 291.4 551.2 285.1 560.5 278.6 569.8 272.0 579.1 265.4 588.5 259.0 597.8 252.6 607.2 246.1 616.9 240.2 626.6 234.2 636.4 228.5 646.6 223.4 656.7 218.4 667.1 213.6 677.8 209.7 688.4 205.7 699.3 202.3 710.4 199.8 Z M1270.7 599.9 C1281.7 597.7 1293.1 596.9 1304.4 596.4 1315.6 595.9 1326.9 596.3 1338.2 596.8 1349.4 597.4 1360.8 598.0 1371.9 599.6 1383.0 601.3 1394.4 603.1 1404.9 606.9 1415.3 610.8 1425.6 616.2 1434.7 622.6 1443.8 629.0 1451.9 637.2 1459.6 645.4 1467.2 653.7 1474.3 662.6 1480.6 671.9 1486.9 681.2 1493.2 690.9 1497.3 701.3 1501.4 711.6 1504.9 723.0 1505.2 734.0 1505.5 744.9 1502.9 756.6 1499.1 767.0 1495.4 777.5 1489.2 787.4 1482.7 796.5 1476.2 805.6 1468.5 814.1 1460.4 821.8 1452.3 829.6 1443.3 836.7 1434.1 843.1 1424.8 849.4 1415.0 855.6 1404.7 859.8 1394.4 863.9 1383.1 867.3 1372.1 867.9 1361.1 868.5 1349.3 866.6 1338.7 863.3 1328.1 860.1 1317.8 854.6 1308.5 848.4 1299.2 842.3 1290.4 834.7 1282.8 826.5 1275.3 818.2 1268.7 808.8 1263.1 799.1 1257.5 789.4 1253.3 778.8 1249.1 768.3 1244.8 757.9 1241.1 747.2 1237.5 736.5 1234.0 725.8 1230.5 715.1 1227.7 704.2 1224.9 693.3 1221.7 682.2 1220.6 671.1 1219.6 660.0 1218.3 647.7 1221.3 637.5 1224.3 627.2 1230.3 615.7 1238.5 609.4 1246.8 603.2 1259.8 602.1 1270.7 599.9 Z M47.8 200.0 C57.4 195.4 70.2 195.5 81.3 195.7 92.5 195.9 104.1 197.7 114.8 201.1 125.4 204.4 135.9 209.7 145.3 215.8 154.6 221.9 163.4 229.6 171.1 237.7 178.7 245.9 185.8 255.1 191.4 264.8 197.0 274.5 203.8 285.4 204.7 295.9 205.6 306.4 202.1 318.4 196.8 327.7 191.5 337.0 181.6 344.8 172.8 351.6 163.9 358.4 154.1 365.5 143.7 368.6 133.2 371.8 121.1 371.2 110.0 370.4 98.8 369.6 87.2 367.5 76.7 363.8 66.2 360.1 55.2 355.3 46.9 348.1 38.6 340.9 32.3 330.7 27.0 320.9 21.7 311.0 17.4 300.0 15.2 289.1 13.1 278.2 12.6 266.4 14.1 255.4 15.5 244.4 18.3 232.2 24.0 223.0 29.6 213.8 38.3 204.5 47.8 200.0 Z M740.9 223.8 C752.1 222.5 763.5 222.6 774.8 222.6 786.2 222.6 797.5 223.1 808.8 223.9 820.1 224.7 831.4 225.6 842.6 227.4 853.8 229.2 865.1 231.1 875.8 234.7 886.4 238.3 897.0 243.0 906.5 248.9 916.1 254.8 924.9 262.4 933.0 270.1 941.2 277.9 948.6 286.6 955.7 295.4 962.8 304.2 969.1 313.7 975.5 323.0 982.0 332.3 988.2 341.9 994.5 351.2 1000.9 360.6 1007.4 369.9 1013.7 379.3 1020.1 388.7 1026.6 398.0 1032.8 407.4 1039.0 416.9 1045.4 426.3 1050.9 436.2 1056.4 446.1 1061.9 456.2 1065.7 466.8 1069.5 477.4 1073.0 488.6 1073.9 499.7 1074.8 510.8 1074.2 522.8 1071.0 533.3 1067.8 543.9 1061.8 554.3 1054.8 562.9 1047.8 571.5 1038.2 578.4 1029.1 585.0 1019.9 591.6 1009.8 596.9 999.9 602.4 990.0 608.0 980.0 613.4 969.9 618.5 959.8 623.5 949.5 628.4 939.1 632.8 928.6 637.2 918.1 641.4 907.3 644.7 896.5 648.1 885.4 650.9 874.3 652.8 863.1 654.8 851.8 656.1 840.5 656.2 829.2 656.4 817.8 655.4 806.6 653.6 795.5 651.8 784.5 648.8 773.7 645.3 762.9 641.9 752.4 637.6 742.0 633.1 731.6 628.6 721.5 623.4 711.4 618.2 701.3 613.0 691.4 607.6 681.6 602.0 671.7 596.4 661.9 590.6 652.3 584.7 642.6 578.8 633.1 572.6 623.7 566.3 614.3 560.0 604.9 553.6 595.8 546.8 586.8 540.0 577.6 533.3 569.2 525.7 560.9 518.1 552.5 510.1 545.8 501.1 539.0 492.2 533.1 482.1 528.7 471.8 524.4 461.5 521.4 450.3 519.5 439.2 517.7 428.1 517.0 416.5 517.7 405.3 518.4 394.1 519.9 382.4 523.6 371.9 527.3 361.4 533.2 351.3 539.9 342.3 546.5 333.3 555.4 325.8 563.7 318.1 571.9 310.4 580.7 303.1 589.6 296.1 598.4 289.0 607.4 282.1 616.7 275.6 626.0 269.2 635.6 263.0 645.4 257.3 655.2 251.7 665.2 246.3 675.6 241.8 686.0 237.3 696.6 233.2 707.5 230.2 718.4 227.2 729.7 225.1 740.9 223.8 Z M1307.3 623.2 C1318.1 619.8 1329.9 618.5 1341.3 618.1 1352.7 617.7 1364.6 618.2 1375.5 620.9 1386.5 623.6 1397.4 628.4 1407.0 634.4 1416.6 640.4 1425.0 648.7 1432.9 657.0 1440.8 665.2 1448.4 674.2 1454.3 683.9 1460.1 693.6 1466.0 704.3 1468.2 715.2 1470.5 726.1 1470.1 738.4 1467.7 749.3 1465.3 760.2 1459.5 770.8 1453.7 780.6 1447.8 790.3 1440.6 799.7 1432.6 807.7 1424.6 815.8 1415.4 823.4 1405.5 828.8 1395.6 834.2 1384.3 838.9 1373.3 840.2 1362.2 841.5 1350.1 839.8 1339.3 836.8 1328.5 833.7 1317.6 828.3 1308.4 821.8 1299.2 815.3 1290.7 806.9 1284.1 797.8 1277.5 788.6 1272.9 777.7 1268.8 767.1 1264.7 756.4 1262.0 745.1 1259.5 733.9 1257.0 722.7 1254.3 711.3 1253.8 700.0 1253.3 688.7 1252.9 676.2 1256.7 665.9 1260.6 655.7 1268.3 645.6 1276.7 638.5 1285.2 631.4 1296.6 626.6 1307.3 623.2 Z M76.1 231.5 C82.1 229.8 89.3 230.3 95.6 231.7 101.8 233.0 108.0 236.1 113.4 239.5 118.9 242.9 124.0 247.4 128.4 252.1 132.8 256.8 137.1 262.1 140.1 267.8 143.1 273.4 146.0 279.8 146.7 286.1 147.3 292.4 146.6 299.5 144.3 305.3 141.9 311.1 137.3 316.7 132.5 320.8 127.7 324.9 121.5 328.1 115.4 330.0 109.3 331.9 102.4 332.7 96.0 332.2 89.7 331.7 82.8 330.2 77.2 327.3 71.6 324.4 66.3 319.7 62.3 314.7 58.3 309.8 55.3 303.6 53.1 297.6 50.9 291.6 49.4 284.9 49.1 278.5 48.8 272.0 49.4 265.2 51.2 259.1 52.9 252.9 55.7 246.3 59.8 241.7 64.0 237.1 70.2 233.2 76.1 231.5 Z M734.2 255.8 C745.2 253.7 756.6 253.0 767.9 252.6 779.1 252.2 790.5 252.6 801.7 253.3 813.0 254.1 824.4 254.9 835.4 256.9 846.5 258.9 857.7 261.4 868.2 265.4 878.6 269.5 888.9 274.8 898.2 281.1 907.4 287.4 915.8 295.2 923.8 303.2 931.8 311.1 938.9 320.0 946.0 328.8 953.2 337.5 960.0 346.5 966.8 355.6 973.5 364.6 980.3 373.7 986.6 383.1 992.8 392.5 998.9 402.0 1004.4 411.9 1009.9 421.8 1015.1 431.8 1019.5 442.2 1023.8 452.6 1028.1 463.3 1030.4 474.3 1032.8 485.2 1034.8 496.9 1033.6 507.9 1032.5 518.8 1029.2 530.5 1023.8 540.0 1018.3 549.4 1009.3 557.4 1000.8 564.6 992.3 571.9 982.4 577.7 972.8 583.6 963.2 589.6 953.3 595.2 943.3 600.3 933.2 605.4 922.9 610.2 912.4 614.2 901.9 618.2 891.0 621.8 880.1 624.3 869.1 626.9 857.8 628.8 846.6 629.5 835.4 630.3 823.9 630.0 812.8 628.8 801.6 627.6 790.4 625.2 779.5 622.2 768.7 619.3 758.0 615.3 747.6 611.0 737.2 606.7 727.0 601.7 716.9 596.5 706.9 591.3 697.0 585.8 687.3 580.0 677.6 574.2 668.1 568.2 658.7 561.8 649.4 555.5 640.2 548.9 631.3 542.0 622.4 535.0 613.5 527.9 605.3 520.2 597.2 512.4 589.0 504.4 582.2 495.4 575.5 486.5 569.1 476.7 564.8 466.4 560.6 456.2 557.7 444.8 556.6 433.7 555.4 422.6 555.7 410.8 558.0 400.0 560.4 389.1 565.0 378.4 570.5 368.7 576.0 359.0 583.6 350.2 591.1 341.8 598.5 333.3 606.8 325.4 615.3 318.1 623.8 310.7 632.9 303.9 642.2 297.5 651.5 291.1 661.1 285.1 671.0 279.7 680.9 274.3 691.1 269.1 701.6 265.1 712.1 261.2 723.1 257.9 734.2 255.8 Z M1319.0 647.7 C1328.3 643.3 1339.7 641.0 1350.1 640.8 1360.5 640.7 1371.8 642.6 1381.4 646.7 1390.9 650.7 1399.7 657.9 1407.3 665.1 1415.0 672.4 1421.9 681.1 1427.2 690.2 1432.4 699.3 1437.4 709.7 1438.7 719.9 1440.0 730.0 1438.2 741.5 1434.8 751.3 1431.5 761.2 1425.3 770.7 1418.6 778.8 1411.9 786.9 1403.9 794.9 1394.9 800.1 1385.9 805.3 1375.0 809.1 1364.7 810.0 1354.5 810.8 1343.0 808.7 1333.3 805.0 1323.6 801.3 1313.8 795.2 1306.7 787.7 1299.6 780.3 1294.6 770.0 1290.8 760.2 1287.0 750.5 1285.2 739.5 1283.9 729.0 1282.7 718.5 1281.4 707.3 1283.1 697.1 1284.8 686.8 1288.2 675.6 1294.2 667.4 1300.2 659.2 1309.7 652.2 1319.0 647.7 Z M747.1 287.4 C758.2 285.2 769.8 284.2 781.2 283.9 792.6 283.6 804.2 284.1 815.5 285.7 826.8 287.4 838.2 289.9 848.9 293.6 859.6 297.4 870.2 302.3 879.9 308.3 889.6 314.2 898.6 321.6 907.1 329.3 915.5 336.9 923.1 345.6 930.6 354.3 938.1 362.9 945.4 371.8 952.1 381.1 958.8 390.4 965.3 399.9 970.6 410.0 976.0 420.1 980.7 430.7 984.3 441.5 987.8 452.3 991.0 463.7 991.9 475.0 992.7 486.2 992.6 498.4 989.3 509.0 985.9 519.5 979.0 529.6 971.8 538.3 964.6 546.9 955.2 554.2 946.1 561.0 936.9 567.8 927.0 573.8 916.9 579.1 906.8 584.3 896.1 588.8 885.2 592.4 874.4 595.9 863.1 598.6 851.8 600.2 840.5 601.8 828.9 602.4 817.5 601.8 806.2 601.3 794.7 599.4 783.6 596.7 772.5 594.0 761.6 590.1 751.0 585.8 740.4 581.5 730.2 576.3 720.1 570.9 710.0 565.4 700.2 559.4 690.7 553.1 681.2 546.8 671.8 540.0 662.9 532.8 654.1 525.6 645.2 518.2 637.4 509.9 629.6 501.6 621.7 492.8 616.0 483.1 610.2 473.3 605.2 462.5 602.8 451.5 600.4 440.6 600.2 428.5 601.7 417.3 603.2 406.2 607.1 394.9 611.9 384.7 616.7 374.4 623.5 364.8 630.7 356.0 637.9 347.2 646.4 339.2 655.1 331.9 663.9 324.6 673.5 318.1 683.3 312.3 693.1 306.5 703.5 301.2 714.1 297.1 724.7 293.0 735.9 289.6 747.1 287.4 Z M1333.9 679.1 C1338.7 675.7 1345.1 673.2 1351.1 672.5 1357.0 671.8 1363.7 672.7 1369.3 674.8 1374.9 676.9 1380.2 680.8 1384.7 684.9 1389.2 689.0 1393.1 694.2 1396.1 699.4 1399.2 704.7 1401.9 710.6 1403.1 716.5 1404.3 722.5 1404.4 729.1 1403.2 735.0 1401.9 740.8 1399.1 746.8 1395.7 751.8 1392.3 756.8 1387.7 761.5 1382.6 764.8 1377.6 768.2 1371.5 770.7 1365.6 771.7 1359.7 772.7 1352.9 772.3 1347.2 770.7 1341.4 769.1 1335.5 766.0 1331.0 762.0 1326.5 758.1 1322.9 752.5 1320.3 747.0 1317.8 741.5 1316.6 735.1 1315.9 729.1 1315.2 723.0 1315.1 716.6 1316.1 710.5 1317.1 704.5 1318.8 698.2 1321.7 693.0 1324.7 687.7 1329.0 682.5 1333.9 679.1 Z M774.0 319.9 C785.3 318.7 797.0 318.6 808.2 320.2 819.4 321.7 830.7 324.8 841.3 328.9 851.9 333.0 862.2 338.5 871.6 344.8 881.1 351.1 889.9 358.6 898.1 366.6 906.2 374.5 913.9 383.2 920.5 392.5 927.1 401.7 933.2 411.7 937.6 422.1 942.0 432.5 945.4 443.9 946.7 455.1 948.1 466.2 948.3 478.4 945.6 489.2 942.9 499.9 937.1 510.6 930.4 519.6 923.7 528.5 914.6 536.3 905.4 542.9 896.2 549.4 885.7 554.7 875.2 558.9 864.6 563.1 853.4 566.4 842.2 568.2 831.0 570.1 819.3 570.6 808.0 569.8 796.7 569.0 785.3 566.5 774.4 563.3 763.5 560.1 752.9 555.5 742.7 550.4 732.5 545.3 722.7 539.3 713.3 532.8 703.9 526.3 694.8 519.3 686.5 511.4 678.2 503.6 669.8 495.4 663.7 486.0 657.5 476.6 651.7 465.9 649.3 455.0 647.0 444.2 647.4 432.0 649.3 421.0 651.3 410.0 655.8 398.9 661.3 389.0 666.7 379.2 674.1 369.8 682.1 361.9 690.1 353.9 699.6 347.0 709.3 341.2 719.1 335.4 729.8 330.8 740.6 327.3 751.4 323.7 762.7 321.0 774.0 319.9 Z M767.8 368.0 C778.7 365.2 790.8 364.5 802.1 365.6 813.3 366.8 824.9 370.1 835.2 374.8 845.5 379.5 855.7 386.0 864.0 393.7 872.3 401.3 880.0 410.8 884.9 420.9 889.8 431.0 893.4 443.0 893.5 454.1 893.5 465.1 890.6 477.5 885.4 487.2 880.2 496.9 871.2 505.8 862.1 512.3 852.9 518.7 841.6 523.6 830.6 526.1 819.7 528.7 807.5 529.0 796.3 527.6 785.1 526.2 773.7 522.3 763.4 517.5 753.2 512.7 743.2 506.1 734.7 498.6 726.2 491.1 717.6 482.3 712.4 472.4 707.1 462.6 703.1 450.5 703.1 439.6 703.1 428.6 707.0 416.3 712.6 406.8 718.1 397.2 727.3 388.6 736.5 382.2 745.7 375.7 756.9 370.7 767.8 368.0 Z"/><path class="topo-index" d="M297.1 0.0 C302.8 2.8 319.4 13.9 331.4 17.0 343.5 20.1 357.5 21.4 369.4 18.6 381.2 15.8 397.0 3.1 402.5 0.0 M1600.0 368.0 C1595.5 365.9 1580.0 361.7 1572.8 355.5 1565.6 349.3 1557.1 339.1 1557.0 331.0 1557.0 322.8 1565.5 312.5 1572.7 306.3 1579.9 300.2 1595.5 296.1 1600.0 294.0 M0.0 661.4 C5.6 661.7 22.5 664.5 33.3 663.2 44.2 661.8 54.7 656.9 65.3 653.4 75.9 649.9 86.3 645.5 96.9 642.1 107.5 638.7 118.2 634.1 129.1 632.9 139.9 631.8 152.5 631.3 162.1 635.2 171.7 639.2 182.5 647.6 186.8 656.6 191.1 665.6 190.1 678.6 188.1 689.2 186.2 699.8 177.6 709.5 175.3 720.2 172.9 730.9 174.2 742.3 173.9 753.5 173.6 764.6 175.1 776.0 173.4 786.9 171.7 797.8 167.2 808.3 163.8 819.0 160.5 829.6 154.5 840.0 153.4 850.8 152.3 861.6 154.0 873.1 157.0 883.7 159.9 894.2 166.0 904.1 171.1 914.0 176.3 923.9 182.0 933.6 187.8 943.1 193.7 952.6 200.3 961.7 206.2 971.1 212.1 980.6 220.3 995.2 223.1 1000.0 M636.5 1000.0 C639.2 994.9 647.2 979.7 652.5 969.5 657.8 959.4 662.5 948.7 668.5 939.0 674.6 929.4 680.2 918.4 688.8 911.5 697.4 904.5 709.0 900.2 719.8 897.2 730.7 894.3 742.6 894.0 754.0 893.8 765.5 893.5 777.0 894.8 788.4 895.9 799.8 897.0 811.2 898.7 822.6 900.3 833.9 902.0 845.3 903.6 856.5 905.9 867.8 908.1 878.7 912.6 890.1 913.8 901.4 915.0 913.0 912.4 924.4 913.0 935.8 913.6 947.9 913.5 958.3 917.4 968.7 921.3 979.3 928.2 986.8 936.3 994.2 944.4 1001.0 955.5 1003.0 966.1 1005.0 976.7 999.5 994.3 998.8 1000.0 M1086.7 0.0 C1082.4 3.4 1070.3 15.5 1060.5 20.2 1050.7 24.8 1039.0 26.3 1028.0 27.8 1017.0 29.3 1005.6 28.8 994.5 29.3 983.3 29.8 972.1 30.3 961.0 30.8 949.8 31.3 938.6 31.8 927.4 32.3 916.3 32.9 905.1 33.6 893.9 34.0 882.7 34.4 871.6 34.6 860.4 34.8 849.2 35.0 838.0 34.8 826.8 34.9 815.6 35.1 804.5 35.3 793.3 35.8 782.1 36.4 771.0 37.4 759.8 38.4 748.7 39.4 737.6 40.6 726.5 41.8 715.3 43.0 704.2 44.2 693.1 45.5 682.0 46.8 670.9 48.1 659.8 49.6 648.7 51.1 637.6 52.3 626.6 54.5 615.7 56.6 604.7 59.1 594.0 62.3 583.3 65.5 572.6 69.1 562.4 73.6 552.2 78.1 542.3 83.4 532.8 89.3 523.3 95.1 514.7 102.3 505.5 108.7 496.3 115.1 487.8 123.0 477.8 127.6 467.8 132.2 456.6 135.2 445.7 136.3 434.7 137.5 423.4 135.2 412.2 134.7 401.0 134.1 389.8 133.9 378.7 133.0 367.6 132.2 356.1 132.1 345.4 129.4 334.7 126.8 324.4 121.8 314.3 117.1 304.2 112.3 294.8 106.2 284.9 100.9 275.1 95.6 265.1 90.5 255.2 85.3 245.4 80.0 235.5 74.6 225.8 69.2 216.0 63.7 206.7 57.5 196.7 52.5 186.7 47.5 176.4 42.9 165.8 39.4 155.3 35.8 144.3 33.2 133.4 31.0 122.4 28.9 111.2 28.0 100.1 26.6 89.0 25.3 77.9 24.3 66.8 23.1 55.6 21.8 44.6 19.5 33.4 19.1 22.3 18.8 5.6 20.7 0.0 21.0 M1600.0 437.4 C1594.7 436.2 1578.3 433.6 1567.9 430.0 1557.6 426.5 1548.2 419.9 1538.0 416.2 1527.7 412.5 1517.1 408.4 1506.4 407.7 1495.7 406.9 1484.6 410.8 1473.7 411.7 1462.8 412.6 1451.5 414.9 1440.9 413.1 1430.4 411.4 1418.3 407.7 1410.4 401.2 1402.5 394.7 1396.4 384.1 1393.7 374.1 1391.1 364.1 1392.8 351.9 1394.5 341.2 1396.1 330.4 1398.3 318.9 1403.5 309.7 1408.7 300.4 1417.0 292.2 1425.4 285.5 1433.9 278.8 1444.6 274.8 1454.1 269.3 1463.7 263.8 1473.0 258.0 1482.6 252.5 1492.1 247.0 1501.4 241.0 1511.3 236.4 1521.2 231.7 1532.0 228.8 1542.1 224.7 1552.3 220.5 1562.7 216.7 1572.3 211.5 1582.0 206.3 1595.4 196.5 1600.0 193.6 M0.0 519.8 C5.3 521.8 21.1 527.5 31.5 531.6 42.0 535.6 52.2 540.5 62.8 544.2 73.4 547.9 84.1 551.6 95.0 554.0 106.0 556.3 117.2 557.2 128.4 558.5 139.5 559.8 150.8 560.3 162.0 561.6 173.1 562.9 184.3 564.2 195.3 566.4 206.3 568.6 217.4 571.0 228.0 574.5 238.6 578.1 248.9 582.7 259.0 587.7 269.0 592.7 278.8 598.4 288.2 604.5 297.6 610.6 309.1 615.8 315.4 624.2 321.6 632.6 326.4 644.8 325.6 654.9 324.9 665.1 316.1 675.1 310.9 685.0 305.8 694.9 299.5 704.4 294.8 714.5 290.1 724.7 286.8 735.5 282.6 746.0 278.4 756.4 273.8 766.6 269.4 777.0 265.1 787.4 260.6 797.7 256.8 808.2 252.9 818.7 248.6 829.3 246.1 840.2 243.7 851.1 242.1 862.4 242.1 873.5 242.2 884.6 244.2 895.9 246.4 906.9 248.6 917.9 251.3 928.9 255.2 939.4 259.0 950.0 264.3 959.9 269.2 970.0 274.1 980.1 282.0 995.0 284.5 1000.0 M528.7 1000.0 C532.2 995.6 542.9 982.6 549.7 973.7 556.5 964.8 563.9 956.2 569.6 946.7 575.4 937.1 580.2 926.8 584.0 916.3 587.7 905.8 590.2 894.7 592.0 883.6 593.9 872.6 594.7 861.4 595.2 850.2 595.7 839.0 594.3 827.7 594.8 816.5 595.4 805.4 593.4 791.7 598.5 783.3 603.6 774.9 615.4 768.3 625.4 766.2 635.4 764.2 647.9 767.8 658.5 771.0 669.1 774.1 678.9 780.3 689.0 785.1 699.1 790.0 708.7 796.1 719.2 799.8 729.7 803.6 740.9 805.5 751.9 807.7 762.9 809.8 774.0 811.4 785.2 812.9 796.3 814.5 807.4 816.1 818.6 817.1 829.7 818.1 840.9 818.7 852.2 819.0 863.4 819.3 874.6 819.3 885.8 818.9 897.0 818.5 908.2 817.4 919.4 816.5 930.6 815.6 941.7 814.0 952.9 813.5 964.1 813.0 975.3 813.4 986.5 813.7 997.8 814.0 1009.0 815.6 1020.2 815.5 1031.3 815.5 1042.5 813.9 1053.7 813.6 1064.9 813.3 1076.3 812.6 1087.3 813.9 1098.4 815.1 1109.6 817.5 1120.2 821.0 1130.7 824.6 1142.0 828.4 1150.6 835.1 1159.2 841.7 1165.7 851.6 1171.6 861.0 1177.5 870.4 1181.0 881.3 1185.9 891.4 1190.7 901.6 1195.5 911.7 1200.5 921.7 1205.6 931.8 1210.3 942.0 1216.2 951.5 1222.1 961.0 1228.3 970.5 1235.9 978.6 1243.5 986.7 1257.6 996.4 1261.9 1000.0 M1403.9 15.7 C1415.1 14.7 1426.5 14.6 1437.7 15.6 1448.9 16.7 1460.3 18.7 1471.0 22.0 1481.7 25.3 1492.6 29.4 1502.0 35.4 1511.3 41.4 1520.3 49.2 1527.1 57.9 1533.9 66.7 1540.3 77.1 1542.9 87.7 1545.5 98.2 1545.1 110.5 1542.6 121.2 1540.1 131.8 1534.4 142.6 1528.0 151.6 1521.5 160.6 1512.5 168.1 1503.8 175.2 1495.1 182.3 1485.6 188.6 1475.9 194.4 1466.2 200.2 1456.2 205.8 1445.8 209.9 1435.3 213.9 1424.2 216.6 1413.1 218.7 1402.1 220.8 1390.7 221.1 1379.4 222.4 1368.2 223.7 1357.0 224.8 1345.8 226.6 1334.7 228.4 1323.7 231.7 1312.6 233.4 1301.5 235.1 1289.8 238.3 1279.0 236.9 1268.2 235.5 1257.0 231.1 1247.8 225.1 1238.7 219.0 1231.6 209.3 1224.3 200.7 1217.0 192.2 1208.3 183.6 1204.1 173.6 1199.8 163.6 1198.5 151.8 1198.6 140.8 1198.8 129.7 1202.0 118.4 1204.8 107.4 1207.5 96.5 1209.7 84.6 1215.4 75.3 1221.0 66.0 1229.3 57.1 1238.6 51.6 1247.9 46.1 1260.1 44.9 1271.1 42.5 1282.1 40.1 1293.5 39.3 1304.6 37.2 1315.7 35.2 1326.8 32.8 1337.8 30.2 1348.7 27.6 1359.5 24.0 1370.5 21.6 1381.6 19.2 1392.7 16.7 1403.9 15.7 Z M0.0 84.7 C5.6 84.3 22.5 81.9 33.7 81.9 44.9 81.9 56.2 83.9 67.4 84.6 78.7 85.4 90.0 85.9 101.2 86.5 112.5 87.1 124.0 86.5 135.1 88.2 146.1 89.9 157.3 92.7 167.8 96.7 178.2 100.6 188.1 106.5 197.9 112.1 207.7 117.7 217.0 124.0 226.4 130.3 235.8 136.5 245.2 142.9 254.2 149.6 263.3 156.4 271.9 163.6 280.8 170.6 289.6 177.7 298.2 185.0 307.3 191.7 316.3 198.4 325.5 205.1 335.2 210.9 344.8 216.7 354.7 222.8 365.2 226.5 375.7 230.1 387.2 232.6 398.3 232.6 409.3 232.6 420.6 229.2 431.4 226.4 442.3 223.5 452.9 219.4 463.5 215.6 474.2 211.8 484.9 208.1 495.2 203.6 505.5 199.1 515.7 194.1 525.5 188.6 535.3 183.0 544.6 176.5 554.0 170.2 563.4 164.0 572.4 157.2 581.9 151.1 591.4 145.0 601.0 138.9 610.9 133.6 620.8 128.2 631.0 123.2 641.5 119.1 651.9 114.9 662.8 111.6 673.7 108.8 684.6 106.1 695.8 104.1 707.0 102.5 718.2 100.9 729.4 99.9 740.7 99.2 751.9 98.5 763.3 98.6 774.5 98.5 785.8 98.4 797.1 98.6 808.4 98.8 819.7 98.9 831.0 99.1 842.3 99.4 853.5 99.7 864.8 100.6 876.1 100.8 887.4 101.0 898.7 100.9 910.0 100.7 921.2 100.4 932.6 98.8 943.8 99.2 955.0 99.6 966.4 100.7 977.4 103.0 988.3 105.3 999.0 109.4 1009.6 113.2 1020.2 117.1 1030.3 122.5 1040.9 126.2 1051.6 129.9 1062.4 133.2 1073.5 135.2 1084.5 137.2 1096.2 136.2 1107.2 138.0 1118.3 139.9 1131.0 140.9 1139.8 146.3 1148.7 151.7 1159.4 161.6 1160.4 170.7 1161.4 179.7 1150.1 190.5 1145.7 200.7 1141.4 210.9 1134.5 221.4 1134.2 231.9 1134.0 242.4 1139.6 253.9 1144.3 263.9 1149.0 274.0 1155.5 283.8 1162.6 292.4 1169.7 301.0 1178.3 308.7 1187.0 315.7 1195.8 322.7 1206.1 327.7 1215.2 334.4 1224.3 341.0 1233.4 347.9 1241.6 355.5 1249.9 363.2 1258.0 371.3 1264.6 380.4 1271.2 389.4 1276.3 399.6 1281.4 409.7 1286.5 419.7 1289.8 430.7 1295.1 440.6 1300.4 450.5 1306.1 460.5 1313.3 469.1 1320.5 477.7 1329.1 485.5 1338.1 492.0 1347.2 498.5 1357.3 504.9 1367.8 508.1 1378.3 511.3 1390.2 511.9 1401.2 511.2 1412.3 510.5 1423.4 506.9 1434.2 503.8 1445.0 500.6 1455.3 495.4 1466.1 492.4 1476.9 489.3 1488.1 486.5 1499.2 485.5 1510.3 484.6 1521.7 485.8 1533.0 486.6 1544.2 487.5 1555.4 489.1 1566.6 490.7 1577.8 492.3 1594.4 495.3 1600.0 496.2 M0.0 462.6 C5.3 464.8 21.1 471.4 31.6 475.8 42.1 480.3 52.3 485.4 63.0 489.4 73.7 493.4 84.6 497.1 95.7 499.8 106.7 502.5 118.1 504.4 129.4 505.7 140.7 507.0 152.2 507.4 163.6 507.7 175.0 508.0 186.5 507.7 197.9 507.5 209.3 507.3 220.8 507.2 232.2 506.6 243.6 506.0 255.0 504.6 266.3 503.9 277.7 503.1 289.5 500.3 300.5 502.0 311.5 503.7 322.4 508.5 332.2 513.9 342.0 519.4 350.5 527.6 359.4 534.7 368.4 541.8 377.3 549.0 385.9 556.5 394.4 564.1 402.5 572.2 411.0 579.9 419.4 587.6 427.8 595.4 436.7 602.6 445.6 609.7 454.3 617.4 464.2 622.9 474.1 628.4 485.2 632.0 496.0 635.5 506.8 638.9 518.3 640.6 529.3 643.7 540.3 646.7 551.3 649.9 562.0 653.9 572.7 657.8 583.2 662.5 593.5 667.4 603.8 672.3 613.8 677.9 623.9 683.3 633.9 688.7 643.7 694.7 653.9 699.8 664.1 704.8 674.8 709.0 685.2 713.6 695.7 718.2 706.3 722.5 716.6 727.4 726.9 732.3 736.7 738.3 747.1 743.1 757.4 747.9 767.9 752.8 778.8 756.2 789.6 759.5 801.0 761.7 812.3 763.1 823.6 764.6 835.1 764.9 846.5 764.9 857.9 764.9 869.3 764.0 880.7 763.1 892.1 762.2 903.5 761.0 914.8 759.6 926.1 758.2 937.5 756.7 948.7 754.8 960.0 752.9 971.2 750.7 982.4 748.2 993.5 745.6 1004.5 742.3 1015.5 739.5 1026.6 736.7 1037.6 733.2 1048.9 731.5 1060.1 729.8 1071.7 728.5 1083.0 729.4 1094.2 730.2 1105.7 732.9 1116.3 736.7 1127.0 740.5 1137.3 746.1 1146.8 752.2 1156.4 758.4 1165.5 765.5 1173.7 773.4 1181.9 781.3 1189.5 790.1 1195.9 799.4 1202.4 808.8 1207.2 819.3 1212.5 829.4 1217.7 839.5 1221.8 850.3 1227.4 860.2 1233.1 870.1 1239.3 879.8 1246.3 888.8 1253.4 897.7 1261.2 906.3 1269.6 913.9 1278.1 921.5 1287.2 928.7 1297.0 934.3 1306.9 939.9 1317.8 944.0 1328.6 947.4 1339.5 950.9 1351.0 952.2 1362.1 954.9 1373.2 957.6 1384.2 960.4 1395.2 963.5 1406.2 966.7 1417.0 970.6 1427.9 973.8 1438.9 977.1 1450.5 978.7 1460.9 983.0 1471.3 987.4 1485.5 997.2 1490.4 1000.0 M396.2 767.1 C406.2 763.1 418.1 761.8 428.9 762.4 439.7 763.0 450.9 766.4 461.0 770.7 471.0 775.0 480.8 781.2 489.1 788.3 497.4 795.4 504.9 804.2 510.7 813.5 516.5 822.8 521.1 833.4 523.9 843.9 526.7 854.5 528.1 866.1 527.4 876.9 526.8 887.8 524.5 899.3 519.9 909.1 515.4 918.9 507.8 927.9 500.2 935.7 492.5 943.5 483.1 950.0 474.0 956.2 464.8 962.4 455.4 968.7 445.3 973.0 435.2 977.3 424.2 980.7 413.4 982.1 402.5 983.6 390.8 983.7 380.2 981.6 369.6 979.4 357.9 975.8 349.7 969.3 341.5 962.7 334.8 952.2 330.9 942.3 327.1 932.3 326.7 920.5 326.6 909.5 326.5 898.5 328.5 887.3 330.3 876.4 332.1 865.5 334.3 854.5 337.5 843.9 340.7 833.3 344.5 822.7 349.8 813.0 355.1 803.4 361.5 793.8 369.2 786.1 377.0 778.4 386.3 771.0 396.2 767.1 Z M1543.4 1000.0 C1547.9 995.5 1560.7 981.5 1570.2 973.1 1579.6 964.7 1595.0 953.4 1600.0 949.5 M0.0 134.3 C5.6 133.4 22.3 129.5 33.5 128.8 44.8 128.2 56.2 129.7 67.5 130.4 78.9 131.2 90.2 131.9 101.5 133.2 112.7 134.4 124.2 135.3 135.1 138.0 146.1 140.7 157.0 144.4 167.2 149.2 177.4 154.0 187.1 160.3 196.3 166.8 205.5 173.4 214.0 181.0 222.4 188.6 230.8 196.2 238.9 204.2 246.7 212.5 254.4 220.8 261.7 229.5 268.7 238.4 275.8 247.3 282.9 256.3 288.7 266.0 294.6 275.6 300.4 285.7 303.9 296.3 307.4 307.0 309.5 318.6 309.5 329.8 309.5 340.9 308.5 353.4 303.9 363.1 299.2 372.8 290.1 381.0 281.5 387.9 272.8 394.8 261.4 398.6 251.9 404.7 242.3 410.8 233.6 418.3 224.1 424.5 214.6 430.6 205.2 437.3 194.9 441.7 184.5 446.0 173.2 448.9 162.1 450.4 150.9 452.0 139.3 452.0 128.1 450.9 116.9 449.9 105.7 447.1 94.8 444.1 83.9 441.1 73.3 436.9 62.6 432.9 52.0 429.0 41.4 424.8 31.0 420.4 20.5 416.0 5.2 408.7 0.0 406.4 M1600.0 812.3 C1594.5 813.8 1578.1 818.1 1567.2 821.3 1556.4 824.6 1545.2 827.2 1535.0 831.9 1524.8 836.6 1515.7 843.7 1506.1 849.7 1496.5 855.7 1487.1 862.1 1477.5 868.0 1467.8 874.0 1458.3 880.2 1448.3 885.5 1438.3 890.7 1428.1 896.2 1417.4 899.5 1406.7 902.8 1395.2 904.7 1384.0 905.2 1372.8 905.7 1361.2 904.9 1350.2 902.7 1339.2 900.5 1328.0 897.0 1318.0 892.1 1308.0 887.2 1298.6 880.3 1289.9 873.1 1281.3 865.8 1273.5 857.4 1266.4 848.6 1259.2 839.9 1253.0 830.3 1247.2 820.6 1241.4 810.9 1236.7 800.5 1231.5 790.5 1226.3 780.4 1221.3 770.2 1216.0 760.2 1210.8 750.2 1205.3 740.2 1199.8 730.3 1194.3 720.4 1189.1 710.3 1182.9 700.8 1176.7 691.4 1170.5 681.5 1162.5 673.7 1154.6 665.9 1145.4 658.1 1135.2 654.1 1125.1 650.0 1112.9 649.9 1101.7 649.6 1090.5 649.3 1078.9 650.0 1067.9 652.2 1056.8 654.4 1046.1 658.6 1035.6 662.8 1025.2 667.0 1015.3 672.7 1005.1 677.6 994.8 682.5 984.8 687.9 974.4 692.2 963.9 696.5 953.2 700.4 942.3 703.4 931.4 706.4 920.2 708.3 909.0 710.2 897.8 712.0 886.6 713.5 875.3 714.7 864.0 715.9 852.7 717.4 841.4 717.5 830.1 717.7 818.6 717.4 807.6 715.5 796.5 713.6 785.5 710.1 774.9 706.2 764.3 702.3 754.3 696.9 744.0 692.1 733.8 687.2 723.7 682.1 713.5 677.0 703.4 671.9 693.3 666.9 683.2 661.6 673.2 656.3 663.3 650.8 653.4 645.3 643.5 639.8 633.7 634.1 623.8 628.7 613.8 623.2 603.8 618.0 593.7 612.8 583.7 607.5 573.5 602.6 563.4 597.4 553.3 592.2 543.1 587.3 533.3 581.6 523.5 575.9 513.9 569.8 504.8 563.1 495.8 556.3 487.1 548.9 479.1 540.9 471.0 533.0 463.8 524.2 456.5 515.5 449.3 506.8 442.0 498.1 435.4 488.9 428.8 479.7 422.4 470.3 417.1 460.3 411.8 450.3 407.2 439.8 403.7 429.1 400.2 418.4 396.2 407.0 396.2 396.0 396.1 385.1 399.6 373.7 403.5 363.2 407.5 352.8 413.7 342.9 419.9 333.5 426.1 324.0 432.8 314.7 440.6 306.6 448.3 298.4 457.2 291.1 466.3 284.4 475.3 277.7 485.2 272.0 495.0 266.2 504.7 260.4 514.8 255.2 524.6 249.7 534.5 244.1 544.4 238.5 554.1 232.7 563.8 226.8 573.4 220.7 583.0 214.8 592.7 208.9 602.2 202.7 612.0 197.1 621.9 191.5 631.9 186.1 642.1 181.2 652.2 176.2 662.6 171.5 673.2 167.6 683.8 163.7 694.7 160.4 705.8 158.0 716.8 155.5 728.1 154.1 739.4 153.0 750.6 151.9 762.0 151.6 773.3 151.5 784.7 151.4 796.0 151.4 807.3 152.4 818.6 153.3 829.8 155.3 840.9 157.2 852.1 159.1 863.1 161.8 874.3 163.7 885.5 165.6 896.8 166.6 908.0 168.4 919.1 170.2 930.7 171.0 941.4 174.4 952.0 177.9 962.5 183.0 971.8 189.2 981.2 195.3 989.7 203.2 997.5 211.3 1005.3 219.4 1012.8 228.3 1018.7 237.8 1024.6 247.4 1028.5 258.2 1032.8 268.7 1037.1 279.2 1039.8 290.3 1044.3 300.7 1048.9 311.0 1053.8 321.4 1060.0 330.8 1066.2 340.2 1073.5 349.1 1081.3 357.2 1089.2 365.2 1098.4 372.1 1107.3 379.1 1116.2 386.1 1125.8 392.2 1134.7 399.2 1143.6 406.2 1152.5 413.3 1160.5 421.2 1168.6 429.1 1175.8 437.9 1183.0 446.7 1190.1 455.5 1196.0 465.3 1203.3 473.9 1210.6 482.6 1218.6 490.7 1226.6 498.6 1234.7 506.6 1242.9 514.5 1251.5 521.8 1260.1 529.1 1268.7 536.7 1278.4 542.4 1288.1 548.1 1298.9 552.2 1309.6 555.9 1320.2 559.6 1331.3 562.6 1342.3 564.8 1353.4 567.0 1364.8 568.4 1376.0 569.1 1387.3 569.9 1398.7 569.6 1410.0 569.4 1421.3 569.2 1432.7 568.8 1444.0 568.0 1455.3 567.2 1466.6 565.0 1477.8 564.6 1489.0 564.2 1502.6 561.1 1511.4 565.7 1520.2 570.2 1526.6 581.9 1530.5 591.9 1534.5 601.9 1532.3 614.7 1535.1 625.6 1537.8 636.5 1541.0 647.9 1546.9 657.3 1552.7 666.6 1561.4 674.9 1570.2 681.6 1579.1 688.4 1595.0 695.1 1600.0 697.8 M0.0 226.5 C2.9 221.7 9.7 204.7 17.7 197.4 25.6 190.1 37.0 185.2 47.6 182.6 58.3 180.0 70.5 181.2 81.8 181.9 93.1 182.5 104.7 183.7 115.6 186.6 126.6 189.4 137.5 193.5 147.4 198.9 157.4 204.2 166.8 211.1 175.3 218.6 183.7 226.2 191.2 235.0 198.1 244.0 205.1 253.0 211.9 262.4 217.1 272.4 222.4 282.4 229.3 293.5 229.7 304.0 230.1 314.5 225.3 326.3 219.5 335.5 213.6 344.7 203.4 351.7 194.8 359.2 186.2 366.6 177.8 375.3 167.9 380.3 158.0 385.3 146.5 388.5 135.4 389.3 124.3 390.1 112.7 387.0 101.5 384.8 90.4 382.6 79.0 380.2 68.5 376.2 57.9 372.1 46.7 367.7 38.2 360.7 29.7 353.6 23.6 343.3 17.2 333.9 10.9 324.5 2.9 309.3 0.0 304.3 M764.9 208.0 C776.3 207.7 787.6 208.1 798.9 208.7 810.3 209.3 821.6 210.2 832.8 211.6 844.1 213.0 855.4 214.6 866.3 217.2 877.3 219.9 888.5 222.8 898.7 227.4 909.0 232.1 918.8 238.2 927.7 245.1 936.7 251.9 944.8 260.0 952.5 268.3 960.1 276.7 966.9 285.8 973.5 295.0 980.0 304.3 985.7 314.1 991.8 323.7 997.9 333.3 1003.8 343.0 1010.0 352.4 1016.3 361.9 1022.8 371.2 1029.4 380.4 1036.0 389.6 1043.0 398.5 1049.6 407.7 1056.3 416.9 1063.3 425.9 1069.2 435.5 1075.1 445.1 1080.9 455.1 1085.1 465.5 1089.4 475.9 1093.3 487.0 1094.7 498.1 1096.0 509.1 1095.8 521.1 1093.1 531.8 1090.4 542.5 1085.1 553.3 1078.7 562.4 1072.2 571.4 1063.3 579.1 1054.5 586.1 1045.6 593.0 1035.4 598.3 1025.6 604.0 1015.8 609.7 1005.8 615.0 995.7 620.3 985.7 625.5 975.6 630.8 965.3 635.6 955.1 640.4 944.7 645.0 934.1 649.1 923.5 653.1 912.8 656.9 901.9 659.9 891.0 662.8 879.8 665.2 868.6 666.7 857.4 668.2 846.0 669.2 834.7 669.0 823.4 668.7 812.0 667.4 800.9 665.2 789.9 663.0 779.0 659.4 768.3 655.6 757.7 651.9 747.2 647.3 736.9 642.6 726.6 637.9 716.5 632.7 706.5 627.4 696.4 622.2 686.5 616.7 676.6 611.2 666.7 605.6 656.9 599.9 647.2 594.1 637.5 588.3 627.8 582.4 618.2 576.3 608.6 570.2 599.1 564.1 589.8 557.6 580.4 551.2 571.0 544.9 562.2 537.7 553.5 530.5 544.6 523.1 537.3 514.6 530.0 506.1 523.4 496.5 518.2 486.6 512.9 476.7 508.7 465.9 505.6 455.1 502.6 444.2 500.7 432.8 499.8 421.6 499.0 410.4 499.0 398.8 500.4 387.6 501.8 376.5 503.7 364.8 508.1 354.6 512.5 344.5 519.5 335.0 527.0 326.6 534.4 318.3 544.0 311.6 552.8 304.5 561.6 297.3 570.6 290.5 579.7 283.7 588.8 276.9 597.8 270.1 607.2 263.7 616.6 257.3 626.1 251.1 635.9 245.4 645.7 239.8 655.8 234.4 666.1 229.8 676.4 225.2 687.0 221.0 697.9 217.8 708.7 214.5 719.9 212.0 731.0 210.4 742.2 208.7 753.6 208.3 764.9 208.0 Z M1323.7 607.8 C1334.8 607.0 1346.3 607.0 1357.5 608.1 1368.6 609.1 1380.1 610.6 1390.7 614.1 1401.2 617.6 1411.5 623.0 1420.7 629.3 1429.9 635.7 1438.0 643.8 1445.7 652.0 1453.4 660.2 1460.8 668.9 1466.9 678.3 1473.0 687.7 1479.1 697.8 1482.3 708.3 1485.5 718.9 1487.1 730.8 1486.0 741.7 1485.0 752.6 1480.7 763.7 1476.0 773.8 1471.2 783.8 1464.5 793.3 1457.5 802.0 1450.4 810.7 1442.4 819.0 1433.8 826.1 1425.1 833.2 1415.6 839.8 1405.5 844.6 1395.5 849.3 1384.3 853.4 1373.4 854.4 1362.4 855.4 1350.6 853.7 1340.0 850.6 1329.3 847.6 1318.8 842.2 1309.5 836.1 1300.2 830.0 1291.5 822.3 1284.2 813.9 1276.9 805.5 1271.0 795.5 1266.0 785.5 1260.9 775.5 1257.5 764.6 1253.9 753.9 1250.4 743.3 1247.3 732.4 1244.7 721.4 1242.1 710.5 1239.2 699.3 1238.5 688.2 1237.8 677.1 1236.9 664.7 1240.5 654.6 1244.1 644.6 1251.7 634.6 1260.0 627.8 1268.3 620.9 1279.7 616.7 1290.4 613.3 1301.0 610.0 1312.5 608.7 1323.7 607.8 Z M739.7 271.5 C750.7 269.4 762.0 268.5 773.2 268.1 784.4 267.6 795.7 268.0 806.8 268.9 818.0 269.9 829.3 271.3 840.1 273.9 851.0 276.6 861.9 280.1 871.9 284.9 882.0 289.7 891.6 295.8 900.5 302.6 909.3 309.5 917.2 317.7 924.9 325.8 932.6 334.0 939.6 342.8 946.7 351.5 953.7 360.2 960.8 369.0 967.2 378.2 973.7 387.3 980.0 396.7 985.5 406.5 991.0 416.2 996.0 426.4 1000.2 436.8 1004.3 447.2 1008.3 457.9 1010.5 468.8 1012.6 479.7 1014.5 491.4 1013.1 502.3 1011.8 513.1 1008.1 524.5 1002.5 533.8 996.8 543.2 987.9 550.9 979.4 558.2 971.0 565.5 961.4 571.7 951.9 577.6 942.4 583.6 932.6 589.2 922.5 594.0 912.3 598.8 901.9 603.1 891.2 606.4 880.5 609.8 869.5 612.5 858.4 614.1 847.4 615.7 836.0 616.6 824.8 616.3 813.7 616.0 802.4 614.4 791.5 612.2 780.5 609.9 769.7 606.5 759.2 602.7 748.6 598.8 738.4 594.1 728.3 589.2 718.2 584.3 708.4 578.8 698.7 573.1 689.1 567.4 679.6 561.3 670.4 554.9 661.1 548.5 652.0 541.9 643.3 534.8 634.7 527.7 626.0 520.4 618.3 512.3 610.5 504.2 602.8 495.8 596.8 486.4 590.7 477.1 585.3 466.8 582.2 456.2 579.0 445.6 577.5 434.0 577.8 423.0 578.2 411.9 580.4 400.4 584.3 390.0 588.1 379.7 594.4 369.9 600.9 360.8 607.3 351.7 614.9 343.2 622.9 335.4 630.9 327.6 639.8 320.5 648.8 313.9 657.9 307.3 667.4 301.1 677.1 295.6 686.9 290.1 697.0 285.0 707.4 280.9 717.8 276.9 728.7 273.7 739.7 271.5 Z M86.1 277.9 C86.5 277.0 87.2 276.1 88.0 275.6 88.8 275.1 89.9 274.9 90.9 274.9 91.9 274.9 92.9 275.1 93.9 275.4 94.8 275.7 95.9 276.1 96.6 276.7 97.4 277.3 98.1 278.1 98.6 279.0 99.0 279.8 99.3 280.9 99.4 281.9 99.6 282.9 99.7 283.9 99.6 284.9 99.5 285.9 99.4 287.0 99.0 287.9 98.6 288.7 97.8 289.6 97.0 290.1 96.2 290.6 95.0 290.6 94.0 290.6 93.0 290.6 92.0 290.4 91.0 290.2 90.0 290.0 88.9 289.9 88.1 289.3 87.4 288.8 86.9 287.8 86.5 286.9 86.1 286.0 86.0 284.9 85.8 283.9 85.6 282.9 85.4 281.9 85.5 280.9 85.5 279.9 85.7 278.8 86.1 277.9 Z M1341.9 655.7 C1350.1 654.0 1359.6 653.9 1367.6 655.9 1375.7 657.9 1383.7 662.7 1390.4 667.8 1397.2 673.0 1403.2 679.8 1408.1 686.7 1413.1 693.7 1417.7 701.5 1420.1 709.6 1422.5 717.7 1423.6 726.9 1422.4 735.2 1421.3 743.4 1417.6 751.9 1413.2 759.2 1408.8 766.4 1402.8 773.4 1396.2 778.6 1389.6 783.9 1381.6 788.6 1373.5 790.8 1365.5 792.9 1356.1 793.1 1347.9 791.6 1339.6 790.1 1330.8 786.8 1324.1 781.9 1317.3 777.0 1311.5 769.7 1307.5 762.4 1303.4 755.0 1301.3 746.1 1299.7 737.7 1298.1 729.3 1297.2 720.4 1297.8 711.9 1298.3 703.4 1299.4 694.2 1302.8 686.6 1306.3 679.0 1312.0 671.5 1318.5 666.3 1325.0 661.2 1333.7 657.5 1341.9 655.7 Z M759.3 343.9 C770.3 341.2 782.0 339.7 793.2 340.0 804.5 340.3 816.0 342.3 826.8 345.6 837.6 348.9 848.2 353.9 857.8 359.7 867.5 365.6 876.6 372.8 884.7 380.7 892.8 388.7 900.4 397.6 906.2 407.2 912.0 416.8 917.1 427.6 919.8 438.4 922.4 449.3 923.6 461.4 922.0 472.4 920.5 483.3 916.4 494.9 910.4 504.2 904.5 513.5 895.5 521.6 886.4 528.2 877.4 534.8 866.7 540.0 856.1 543.8 845.5 547.6 834.0 550.1 822.8 550.9 811.5 551.7 799.8 550.7 788.8 548.5 777.7 546.3 766.7 542.3 756.4 537.7 746.1 533.0 736.1 527.1 726.9 520.6 717.7 514.0 708.7 506.6 701.0 498.3 693.4 490.0 685.5 480.9 680.9 470.8 676.3 460.7 673.2 448.8 673.3 437.8 673.3 426.8 676.5 414.9 681.0 404.8 685.5 394.6 692.5 384.8 700.3 376.8 708.1 368.7 717.8 361.9 727.6 356.5 737.5 351.0 748.4 346.6 759.3 343.9 Z"/></svg>